<?xml version="1.0" encoding="utf-8"?>
<!-- Generator: Adobe Illustrator 25.4.1, SVG Export Plug-In . SVG Version: 6.00 Build 0)  -->
<svg version="1.1" id="Layer_1" xmlns="http://www.w3.org/2000/svg" xmlns:xlink="http://www.w3.org/1999/xlink" x="0px" y="0px"
	 viewBox="0 0 150.6 159.6" style="enable-background:new 0 0 150.6 159.6;" xml:space="preserve">
<style type="text/css">
	.st0{fill:#3B9C9C;}
</style>
<g id="Layer_2_00000156558735256568341720000006577161752891077250_">
	<g id="Layer_1-2">
		<path class="st0" d="M0.1,84.4c-0.2-10,0-20,0.5-30c0.4-6.7,0-13.5,1.7-20.2c3.5-13,15.2-22,28.6-22.2c2.2,0,4.4,0,6.6,0
			c1.2,0,1.7-0.5,1.6-1.7c-0.1-1.5,0-3,0-4.5c0-3.3,2.7-5.9,6-5.8c0,0,0,0,0.1,0c3.3-0.1,6.1,2.5,6.2,5.8c0,0.1,0,0.1,0,0.2
			c0,1.5,0.1,3,0,4.5c0,1.1,0.4,1.6,1.5,1.6c1.6,0,3.3,0,4.9,0c13,0,26,0,39.1,0.1c2,0,2.6-0.6,2.4-2.5c-0.1-1.2-0.1-2.4,0-3.6
			c0-3.3,2.7-6,6-6c0,0,0.1,0,0.1,0c3.3-0.1,6.1,2.5,6.2,5.8c0,0.1,0,0.1,0,0.2c0,1.4,0.1,2.9,0,4.3s0.4,1.7,1.7,1.8
			c4.2,0.1,8.5-0.3,12.7,0.7c13.6,3.2,22.9,15.1,23.6,29c1,19.9,1.3,39.9,1,59.9c-0.2,10-0.5,20-1.4,30
			c-1.2,13.5-13.1,25.3-26.6,26.4c-5.5,0.5-11.1,0.8-16.7,1c-16.7,0.6-33.4,0.7-50.1,0.3c-9.2-0.2-18.4-0.6-27.5-1.3
			C14.8,157,2.8,145,1.6,131.5c-0.6-7.6-0.8-15.2-1.2-22.8C0,100.5,0.2,92.4,0.1,84.4z M75.3,60.4c-20,0-40,0-60.1,0
			c-1.6,0-2.5,0.2-2.5,2.1c-0.1,7.9-0.4,15.8-0.3,23.6c0.2,14.1,0.5,28.3,1.3,42.4c0.5,8.3,6.2,15.4,14.4,16.9c4.7,0.7,9.4,1,14.2,1
			c12.8,0.4,25.5,0.8,38.3,0.7c13.1-0.2,26.1-0.6,39.2-1.3c8.7-0.5,16.3-7.5,16.9-16.2c0.5-7.8,0.9-15.6,1.1-23.4
			c0.3-14.4,0.2-28.8,0-43.2c0-2.5-0.1-2.6-2.7-2.6L75.3,60.4z M75.3,48.1h50.1c3.2,0,6.4-0.1,9.6,0c1.7,0.1,2.4-0.4,2.2-2.2
			s-0.3-3.5-0.4-5.2c-0.7-7.9-6.5-14.5-14.3-16c-3.2-0.4-6.4-0.5-9.6-0.4c-1.1,0-1.5,0.4-1.4,1.5c0,1.6,0,3.1,0,4.7
			c-0.1,3.3-2.8,5.9-6.1,5.9c-3.3,0.1-6.1-2.6-6.2-5.9c0,0,0,0,0-0.1c-0.1-1.3-0.1-2.6,0-3.9c0.2-1.6-0.4-2.2-2.1-2.1
			c-8.5,0.1-17,0-25.5,0c-6.1,0-12.3,0-18.4,0c-1.4,0-1.9,0.5-1.8,1.9s0,2.9,0,4.3c-0.1,3.3-2.8,5.9-6.1,5.9
			c-3.3,0.1-6.1-2.6-6.2-5.9c0,0,0-0.1,0-0.1c0-1.5,0-3,0-4.5c0-1.1-0.4-1.6-1.5-1.6c-1.9,0-3.9,0-5.8,0
			c-9.2,0.3-16.1,5.9-17.8,14.6c-0.3,2.1-0.5,4.2-0.6,6.3c-0.1,2.8-0.1,2.8,2.7,2.8L75.3,48.1z"/>
		<path class="st0" d="M36.1,87.1c0.1-5,4.3-9,9.4-8.9c5,0.1,9,4.3,8.9,9.4c-0.1,5-4.3,9-9.4,8.9c0,0,0,0,0,0c-5-0.1-9-4.1-8.9-9.1
			C36.1,87.2,36.1,87.1,36.1,87.1z"/>
		<path class="st0" d="M66.2,87.2c0-5,4.1-9.1,9.2-9.1c5,0,9.1,4.1,9.1,9.2c0,5-4.1,9.1-9.2,9.1c-5,0.1-9-3.9-9.1-8.9
			C66.2,87.4,66.2,87.3,66.2,87.2z"/>
		<path class="st0" d="M105.3,96.4c-5,0-9.1-4.1-9.1-9.2c0-5,4.1-9.1,9.2-9.1c5,0,9.1,4.1,9.1,9.1c0.1,5-3.9,9.1-8.9,9.1
			C105.5,96.4,105.4,96.4,105.3,96.4z"/>
		<path class="st0" d="M54.4,117.4c-0.1,5-4.2,9.1-9.2,9c-5-0.1-9.1-4.2-9-9.2c0.1-5,4.2-9.1,9.2-9c0,0,0,0,0,0c5,0,9,4,9,9
			C54.4,117.3,54.4,117.3,54.4,117.4z"/>
		<path class="st0" d="M75.2,108.2c5,0,9.2,4,9.2,9.1c0,5-4,9.2-9.1,9.2c-5,0-9.2-4-9.2-9.1c0,0,0,0,0,0c-0.1-4.9,3.8-9,8.7-9.2
			C75,108.2,75.1,108.2,75.2,108.2z"/>
		<path class="st0" d="M114.5,117.4c-0.1,5-4.2,9.1-9.2,9c-5-0.1-9.1-4.2-9-9.2c0.1-5,4.2-9.1,9.2-9c0,0,0,0,0,0c5,0,9,4,9,9
			C114.5,117.3,114.5,117.3,114.5,117.4z"/>
	</g>
</g>
</svg>
