<?xml version="1.0" encoding="utf-8"?>
<!-- Generator: Adobe Illustrator 25.4.1, SVG Export Plug-In . SVG Version: 6.00 Build 0)  -->
<svg version="1.1" id="Layer_1" xmlns="http://www.w3.org/2000/svg" xmlns:xlink="http://www.w3.org/1999/xlink" x="0px" y="0px"
	 viewBox="0 0 378.5 378.6" style="enable-background:new 0 0 378.5 378.6;" xml:space="preserve">
<style type="text/css">
	.st0{fill:#3B9C9C;}
	.st1{fill:#0A3558;}
</style>
<g id="Layer_2_00000070087104810930395600000001196245560060978320_">
	<g id="Layer_1-2">
		<path class="st0" d="M213.7,0c13.3,3,26.5,6.4,39.2,11.5c28.2,11.4,53.4,28.8,74,51.2c18.7,20,33.1,43.7,42.3,69.5
			c3.4,9.4,6.1,19,8,28.7c0.3,1.6,0.8,3.1,1.3,4.6v5.9c-3.5,7.2-8.4,9.7-14.7,7.5c-4.5-1.5-6.6-4.9-7.5-9.3
			c-1.6-8-3.5-15.8-5.9-23.6c-7.5-23.7-19.8-45.5-36.1-64.2C287.5,51,251.1,30.1,211,22.5c-1.3-0.2-2.6-0.5-4-0.9
			c-4.4-1.2-7.4-4-8.2-8.5c-1.1-4.5,0.8-9.1,4.7-11.6l2.1-1.5H213.7z"/>
		<path class="st1" d="M271.9,378.6c-21.9-0.5-42.4-6.6-62.3-15.2c-28.2-12.2-54.7-27.9-78.9-46.8c-35.5-27.6-65.1-60.7-89.6-98.4
			c-14.2-21.6-25.5-45-33.6-69.6c-4.9-14.9-8.1-30.2-7.5-46C0.7,87,5.7,73.3,16.7,62.2c10.8-11,21-22.5,32.9-32.3
			C63.3,18.4,82.4,18.7,96,30.4c13.2,11.4,24.7,24.3,37.1,36.5c4.9,4.8,9.9,9.6,14.3,14.9c11.8,14.1,12,33,0.2,47
			c-7.9,9.4-17,17.8-25.8,26.4c-2.2,2.1-2.6,3.8-1.2,6.7c8.6,17.2,20.5,31.8,33.3,45.8c14.3,15.8,30.5,29.8,48.3,41.6
			c4.5,3,9.4,5.4,14.1,8c2.4,1.3,3.9,0.9,5.8-0.9c8.8-8.6,17.1-17.7,26.4-25.8c13.7-11.9,33.5-12.2,46.9,0
			c17.3,15.8,33.6,32.6,49.6,49.7c14.5,15.5,14.7,34.4,0.8,50.4c-10.2,11.6-21.1,22.8-32.5,33.3
			C301.8,374.5,287.5,378.9,271.9,378.6z M22.5,105.2c0,11.4,1.9,22.8,5.5,33.6c8.8,28.1,22.4,53.8,39.2,77.9
			c18.5,26.7,40.2,50.8,64.8,72c22.5,19.3,47.3,35.6,73.9,48.5c20.4,9.9,41.3,18,64.3,19.1c11,0.5,21.2-1.9,29.2-9.8
			c9.9-9.7,19.6-19.7,29.1-29.9c6.5-6.9,6.2-14.8-0.2-21.8c-2.8-3.1-5.9-6-8.8-8.9c-12.3-12.3-24.5-24.6-36.9-36.8
			c-6.7-6.7-13.4-6.9-20.7-0.9c-1.3,1.1-2.6,2.3-3.8,3.5c-8.5,8.4-16.9,16.9-25.4,25.3c-6,5.9-12.8,7.3-20.3,3.6
			c-7.2-3.4-14.3-7.3-21.1-11.5c-25.9-16.7-47.9-37.7-67.4-61.5c-10.5-12.8-19.6-26.5-26.4-41.7c-4.1-9.2-3-15.8,4.2-22.8
			c1-0.9,2-1.8,3-2.8c8.1-8.1,16.4-16,24.4-24.2c6.7-7,6.7-14.3-0.1-21.2c-14.8-15.2-29.7-30.2-44.7-45.1c-8-7.9-15.3-7.7-23.7-0.3
			c-0.8,0.7-1.6,1.5-2.4,2.3c-7.5,7.5-14.9,15.1-22.5,22.4C26.5,83.2,22,94,22.5,105.2z"/>
		<path class="st0" d="M208.3,68.5c10,1.4,19.7,4.3,28.8,8.5c36,16.5,59.5,43.8,70.4,82c0.9,3.3,1.7,6.7,2.2,10.1
			c1.1,6.5-2.4,12.2-8,13.5c-6.3,1.4-12.1-1.9-13.7-8.6c-2.3-9.5-4.6-18.9-9.1-27.6c-15.3-29.6-38.9-48.2-71.6-55.3
			c-1.1-0.2-2.2-0.5-3.2-0.7c-5.7-1.5-9.5-6.6-8.8-12C196.2,72.2,200.8,68.3,208.3,68.5z"/>
	</g>
</g>
</svg>
