<svg xmlns="http://www.w3.org/2000/svg" viewBox="0 0 192.17 192.12"><defs><style>.cls-1{fill:#0a3558;}.cls-2{fill:#c1a261;}.cls-3{fill:#3b9c9c;}</style></defs><g id="Layer_2" data-name="Layer 2"><g id="Layer_1-2" data-name="Layer 1"><path class="cls-1" d="M96.18,0c52.48-.26,95.95,43.06,96,96s-43.43,96.65-97,96.16A96.31,96.31,0,0,1,0,96.13C0,43,43.43-.32,96.18,0ZM13.12,95.92c.45,46.25,36.76,82.92,82.84,83a82.39,82.39,0,0,0,83-82.95A82.29,82.29,0,0,0,96.19,13.18C50,13.12,13.69,49.73,13.12,95.92Z"/><path class="cls-2" d="M102.61,83.44c0,10.59,0,21.17,0,31.75A6.35,6.35,0,0,1,98,121.5,6.64,6.64,0,0,1,90.74,119a6.06,6.06,0,0,1-1.19-3.73q0-32,0-64.1A6.27,6.27,0,0,1,96,44.76a6.34,6.34,0,0,1,6.58,6.53C102.64,62,102.61,72.72,102.61,83.44Z"/><path class="cls-3" d="M96.06,134.26a6.53,6.53,0,1,1-6.5,6.58A6.39,6.39,0,0,1,96.06,134.26Z"/></g></g></svg>