<?xml version="1.0" encoding="utf-8"?>
<!-- Generator: Adobe Illustrator 25.4.1, SVG Export Plug-In . SVG Version: 6.00 Build 0)  -->
<svg version="1.1" id="Layer_1" xmlns="http://www.w3.org/2000/svg" xmlns:xlink="http://www.w3.org/1999/xlink" x="0px" y="0px"
	 viewBox="0 0 384 384" style="enable-background:new 0 0 384 384;" xml:space="preserve">
<style type="text/css">
	.st0{fill:#0A3558;}
	.st1{fill:#03B9C9;}
	.st2{fill:#C1A261;}
</style>
<g id="Layer_2_00000182504578162185319630000016067404862600051892_">
	<g id="Layer_1-2">
		<path class="st0" d="M161.2,0c10,1.6,20,2.9,29.6,6.3c56.8,20,92.1,59.3,102.4,118.8c8,46.1-5.7,86.8-37.2,121.2
			c-24.8,27.1-55.9,42.8-92.3,47.7c-23.3,3.1-47,0.2-68.8-8.5c-2.9-1.1-5-0.7-7.6,1c-25.4,16.4-51.8,18.1-78.9,4.3
			c-7.6-3.9-9.8-10.7-5.5-17.8c13-21.9,15.3-44.9,8-69.3C6.7,189,2.3,174.2,0,159v-25.5c0.7-4.3,1.2-8.7,2.1-12.9
			c12.5-57,46.3-95.1,101.4-114.2c9.7-3.4,19.8-4.8,30-6.4H161.2z M271.2,147.4c0-3.8,0-7.5,0-11.2c0-0.4,0-0.7-0.1-1.1
			c-3.8-32-17.4-59-41.5-80.3c-28.4-25.1-61.9-35.7-99.2-30.1c-45.3,6.7-77.6,31.9-96.8,73.5c-8.9,19.2-12.1,40.5-9.5,61.4
			c1.3,10.7,4.4,21,7.8,31.2c9.1,27.2,10.2,54.1-1.6,80.8c-1.4,3.1,1,3.1,2.7,3.4c17.4,3.2,33.1-0.4,46.4-12.3
			c4.9-4.4,9.9-5.3,15.8-2.6c29.1,13.3,59,15,89.4,5.2C235.7,248.8,272.2,201.3,271.2,147.4L271.2,147.4z"/>
		<path class="st1" d="M330,384c-12.8-2.2-24.9-6.4-35.4-14.4c-1.6-1.2-3.1-0.5-4.6,0.1c-18,7.1-37.2,10.4-56.5,9.9
			c-33.9-1.1-64.4-11.9-90.9-33.2c-4.2-3.4-7.9-7.2-6.8-13.2c1.7-9.4,12.1-13,19.7-6.8c6.5,5.4,13.6,10.2,21,14.4
			c15.7,8.4,32.9,13.5,50.7,14.8c21.2,1.7,42.4-2.1,61.6-11c5.8-2.6,10.7-1.8,15.5,2.5c13.1,11.7,28.4,15.7,45.6,12.7
			c4.7-0.8,4.8-1,3-5.5c-10.5-25.6-10.2-51.1-0.8-77.1c16.1-44,10.3-85.2-18.1-122.9c-2.5-3.3-5.1-6.6-4.6-11.1
			c0.4-4.9,3.9-9,8.6-10.2c5.1-1.3,9.4,0.3,12.7,4.4c8.3,10,15.2,21.1,20.5,33c6.5,14.4,10.6,29.7,12.3,45.4
			c0.1,0.6,0.3,1.2,0.5,1.8V246c-0.2,0.5-0.3,0.9-0.4,1.4c-1.5,14-5,27.8-10.3,40.9c-3.4,8.8-5,18.1-4.6,27.5
			c0.4,14.6,4.6,28.7,12.2,41.2c4.4,7.3,2.3,14.1-5.2,18.2c-8.2,4.5-17,7-26.1,8.8H330z"/>
		<path class="st2" d="M147.6,129.5c10.1,0.1,18.3,8.3,18.3,18.5c-0.2,10.1-8.3,18.3-18.4,18.5c-9.9,0.1-18.7-8.8-18.6-18.8
			C129.2,137.6,137.5,129.5,147.6,129.5z"/>
		<path class="st2" d="M195.5,148.2c-0.1-10.2,8-18.5,18.1-18.6c0.1,0,0.2,0,0.3,0c10,0,18.5,8.5,18.5,18.4
			c-0.2,10.1-8.3,18.3-18.4,18.6C204.3,166.7,195.6,158.2,195.5,148.2z"/>
		<path class="st2" d="M99.3,148.1c0.2,10.1-7.8,18.4-17.9,18.6c-10.1,0.2-18.4-7.8-18.6-17.9c0-0.3,0-0.6,0-0.8
			c-0.2-10.1,7.8-18.4,17.9-18.6c10.1-0.2,18.4,7.8,18.6,17.9C99.3,147.6,99.3,147.9,99.3,148.1L99.3,148.1z"/>
	</g>
</g>
</svg>
