<svg xmlns="http://www.w3.org/2000/svg" viewBox="0 0 383.56 383.74"><defs><style>.cls-1{fill:#0a3558;}</style></defs><g id="Layer_2" data-name="Layer 2"><g id="Layer_1-2" data-name="Layer 1"><path class="cls-1" d="M14.54,383.74c-12.68-4.18-16.48-15-13.66-24.58,1.14-3.86,3.74-6.69,6.49-9.44Q75.94,281.2,144.46,212.65c5.82-5.82,11.54-11.76,17.52-17.42,2.42-2.3,2.63-3.65.09-6.16-16.44-16.19-32.7-32.57-49-48.89Q60,87.13,6.91,34.09C2.56,29.74-.22,24.94,0,18.56.33,10.59,4.29,5,11.27,1.84s13.91-2.3,20,2.76c1.44,1.19,2.71,2.58,4,3.9q76.6,76.61,153.22,153.22c3.44,3.44,3.45,3.44,6.84,0Q272.62,84.5,349.87,7.2c3.82-3.82,7.95-6.7,13.6-7,10.22-.5,16.26,5,20.09,13.74V24.44c-1.79,4.36-4.74,7.82-8.05,11.12q-76.62,76.51-153.16,153.12c-3.44,3.43-3.44,3.44,0,6.83Q299.13,272.36,376,349.16c3.32,3.32,6.16,6.84,7.56,11.38v9.73c-2.71,6.63-7.23,11.36-14.22,13.47h-9.73c-4.35-1.79-7.8-4.75-11.1-8.05Q272,299,195.36,222.49c-3.41-3.41-3.42-3.41-6.84,0Q111.93,299.09,35.37,375.69c-3.3,3.31-6.75,6.27-11.1,8.05Z"/></g></g></svg>