<?xml version="1.0" encoding="utf-8"?>
<!-- Generator: Adobe Illustrator 25.4.1, SVG Export Plug-In . SVG Version: 6.00 Build 0)  -->
<svg version="1.1" id="Layer_1" xmlns="http://www.w3.org/2000/svg" xmlns:xlink="http://www.w3.org/1999/xlink" x="0px" y="0px"
	 viewBox="0 0 609.5 87.5" style="enable-background:new 0 0 609.5 87.5;" xml:space="preserve">
<style type="text/css">
	.st0{fill:#0A3558;}
	.st1{fill:#3B9C9C;}
	.st2{fill:#C1A261;}
</style>
<g id="Layer_2_00000007423946890611152420000015894162619306932143_">
	<g id="Layer_1-2">
		<g>
			<polygon class="st0" points="33.7,37 33.7,87.7 18.6,79.8 18.6,43.4 			"/>
			<polygon class="st0" points="12,43.4 12,76.4 0,70.1 0,48.5 			"/>
			<polygon class="st0" points="56.8,43.4 56.8,79.8 41.7,87.7 41.7,37 			"/>
			<polygon class="st0" points="75.4,34.8 75.4,70.1 63.5,76.3 63.5,38.3 56.8,35.5 41.7,29 41.7,20.4 56.8,26.9 63.5,29.7 			"/>
			<polygon class="st1" points="33.7,20.4 33.7,29 18.6,35.5 12,38.3 0,43.4 0,34.8 12,29.7 18.6,26.9 31.6,21.4 			"/>
			<polygon class="st2" points="75.4,14.6 75.4,26.2 63.5,21.1 56.8,18.3 41.7,11.8 41.7,0.2 56.8,6.6 63.5,9.5 			"/>
		</g>
		<g>
			<path class="st0" d="M96.7,49.6c0.6,2.7,2.6,3.9,5.7,3.9c3.1,0,4.4-1.2,4.4-3.2c0-1.9-1.3-3.2-5.9-4.2c-7.3-1.7-9.2-4.4-9.2-8.1
				c0-4.7,3.5-7.9,9.9-7.9c7.2,0,10,3.9,10.4,7.9h-5.9c-0.3-1.7-1.2-3.5-4.7-3.5c-2.4,0-3.8,1-3.8,2.9s1.1,2.6,5.5,3.6
				c7.9,1.9,9.6,4.7,9.6,8.6c0,4.9-3.7,8.3-10.9,8.3c-6.9,0-10.5-3.4-11-8.3L96.7,49.6z"/>
			<path class="st0" d="M122.8,35.3h-8.2v-4.7h22.3v4.7h-8.2v22.2h-5.9V35.3z"/>
			<path class="st0" d="M146.2,46.7v10.8h-5.7v-27h11.9c5.9,0,9.1,3.2,9.1,7.4c0.2,2.8-1.4,5.3-3.9,6.4c1.3,0.5,3.4,1.9,3.4,6.7v1.3
				c-0.1,1.7,0.1,3.5,0.4,5.2h-5.5c-0.5-2-0.7-4-0.6-6.1v-0.4c0-3-0.7-4.4-5.1-4.4L146.2,46.7z M146.2,42h4.9c3.2,0,4.4-1.2,4.4-3.5
				c0-2.3-1.5-3.4-4.3-3.4h-5V42z"/>
			<path class="st0" d="M172,30.5v16.1c0,5.2,2.7,6.7,5.6,6.7c3.3,0,5.4-1.8,5.4-6.7V30.5h5.9v15.9c0,9.3-5.4,11.6-11.4,11.6
				s-11.4-2.5-11.4-11.6V30.5H172z"/>
			<path class="st0" d="M217.9,49.2c-1.1,5-4.9,8.7-11.7,8.7c-8.6,0-12.6-6.1-12.6-13.8c0-7.4,4.2-14.1,12.9-14.1
				c7.2,0,10.7,4.2,11.4,8.8H212c-0.6-2.6-3-4.4-5.7-4.2c-4.8,0-6.7,4.3-6.7,9.3c0,4.6,1.6,9.4,6.8,9.4c2.6,0.1,4.9-1.6,5.5-4.1
				H217.9z"/>
			<path class="st0" d="M228.3,35.3h-8.2v-4.7h22.3v4.7h-8.2v22.2h-5.9L228.3,35.3z"/>
			<path class="st0" d="M252.3,30.5v16.1c0,5.2,2.7,6.7,5.6,6.7c3.3,0,5.5-1.8,5.5-6.7V30.5h5.9v15.9c0,9.3-5.4,11.6-11.4,11.6
				c-6,0-11.4-2.5-11.4-11.5v-16H252.3z"/>
			<path class="st0" d="M281.1,46.7v10.8h-5.7v-27h11.9c5.9,0,9.1,3.2,9.1,7.4c0.2,2.7-1.4,5.3-3.9,6.4c1.3,0.5,3.4,1.9,3.4,6.7v1.3
				c-0.1,1.7,0.1,3.5,0.4,5.2h-5.5c-0.5-2-0.7-4-0.6-6.1v-0.4c0-3-0.7-4.4-5.1-4.4L281.1,46.7z M281.1,42h4.9c3.2,0,4.4-1.2,4.4-3.5
				c0-2.3-1.4-3.4-4.3-3.4h-5V42z"/>
			<path class="st0" d="M320.1,45.8h-12.9v6.8h14.2l-0.7,4.7h-19.2V30.5h19.2v4.7h-13.5V41h12.9V45.8z"/>
			<path class="st0" d="M325.6,30.5h10.7c7.9,0,13,5.2,13,13.2s-5,13.9-13.3,13.9h-10.5V30.5z M331.5,52.8h4.4
				c5.2,0,7.5-3.8,7.5-9.1c0-4.4-2.1-8.5-7.4-8.5h-4.4V52.8z"/>
			<path class="st0" d="M366.6,49.9c0.7,3.3,3,5,6.9,5c4.3,0,5.9-2,5.9-4.6s-1.3-4.3-6.8-5.6c-6.4-1.6-8.7-3.8-8.7-7.6
				s3-7.3,9.1-7.3c6.5,0,9.2,3.8,9.5,7.3h-3.7c-0.5-2.4-2-4.4-6-4.4c-3.3,0-5.2,1.5-5.2,4.1s1.6,3.6,6.3,4.7
				c7.8,1.9,9.1,4.9,9.1,8.4c0,4.4-3.2,7.9-9.9,7.9c-6.7,0-9.8-3.8-10.4-7.9L366.6,49.9z"/>
			<path class="st0" d="M405.6,44.8H392v9.7h14.9l-0.5,3.2h-18V30.2h17.8v3.2H392v8.2h13.6L405.6,44.8z"/>
			<path class="st0" d="M418.6,33.3h-8.8v-3.2h21.3v3.2h-8.8v24.2h-3.6V33.3z"/>
			<path class="st0" d="M442.4,33.3h-8.8v-3.2h21.3v3.2h-8.8v24.2h-3.6L442.4,33.3z"/>
			<path class="st0" d="M458.8,30.2h3.6v24.2h14.2l-0.5,3.2h-17.3L458.8,30.2z"/>
			<path class="st0" d="M497.6,44.8h-13.6v9.7h15l-0.5,3.2h-18V30.2h17.8v3.2h-14.2v8.2h13.6L497.6,44.8z"/>
			<path class="st0" d="M527.3,45.9c0-5.1,0-10.2,0.2-13.1h-0.1c-1.2,4.4-5.6,16.2-8.7,24.7h-3.2c-2.4-7-6.9-20.1-8.2-24.8H507
				c0.2,3.2,0.3,9.2,0.3,13.9v10.9h-3.4V30.2h5.4c3.2,8.5,6.9,19.4,7.9,22.9l0,0c0.6-2.6,5.1-14.6,8.3-22.9h5.3v27.3h-3.5
				L527.3,45.9z"/>
			<path class="st0" d="M555.4,44.8h-13.6v9.7h14.9l-0.5,3.2h-18V30.2H556v3.2h-14.2v8.2h13.6L555.4,44.8z"/>
			<path class="st0" d="M561.6,57.5V30.2h4.7c3.9,6.3,12.4,20,14,22.9l0,0c-0.3-3.5-0.3-7.9-0.3-12.3V30.2h3.4v27.3H579
				c-3.6-5.9-12.5-20.5-14.2-23.7l0,0c0.2,3.2,0.2,7.7,0.2,12.6v10.9L561.6,57.5z"/>
			<path class="st0" d="M596.6,33.3h-8.8v-3.2h21.3v3.2h-8.8v24.2h-3.6V33.3z"/>
		</g>
	</g>
</g>
</svg>
