<?xml version="1.0" encoding="utf-8"?>
<!-- Generator: Adobe Illustrator 25.4.1, SVG Export Plug-In . SVG Version: 6.00 Build 0)  -->
<svg version="1.1" id="Layer_1" xmlns="http://www.w3.org/2000/svg" xmlns:xlink="http://www.w3.org/1999/xlink" x="0px" y="0px"
	 viewBox="0 0 190 190.1" style="enable-background:new 0 0 190 190.1;" xml:space="preserve">
<style type="text/css">
	.st0{fill:#0A3558;}
</style>
<g id="Layer_2_00000068660629491629036310000008911525382481957269_">
	<g id="Layer_1-2">
		<path class="st0" d="M0.1,98.6c0-9.1-0.2-18.2,0.1-27.2C0.1,63.2,1,55,2.6,47C7.1,27.1,21.8,12.9,42,9.2c7.3-1.3,14.6-2,22-2.1
			C82.4,7,100.9,7,119.3,7c4.4,0,7.5,3,7.5,7.2s-3.1,7.2-7.5,7.2c-13.3,0-26.6-0.2-40,0.1c-10.7,0.2-21.5,0.1-32.2,1.6
			C30,25.4,18.2,37,16,54.1c-0.8,6.5-1.3,13-1.4,19.5c-0.3,12.1-0.6,24.2-0.2,36.2c0.3,11,0.1,21.9,1.6,32.8
			c2.4,17.3,13.5,28.7,31,31.2c5.8,0.8,11.6,1.3,17.5,1.4c12.9,0.2,25.8,0.7,38.6,0.3c11.5-0.3,22.9-0.1,34.4-1.9
			c15.3-2.3,27.6-14.1,29.5-30.9c0.7-5.9,1.2-11.8,1.3-17.7c0.5-18.1,0.3-36.2,0.4-54.2c0-4.3,2.5-7.3,6.3-7.6
			c3.9-0.5,7.4,2.2,7.9,6.1c0.1,0.4,0.1,0.8,0.1,1.2c0,8.8,0,17.7,0,26.6c0,9.6,0.1,19.2-0.1,28.8c-0.2,8.6-0.6,17.3-2.9,25.7
			c-5.1,19.2-17.5,31.1-36.8,35.8c-8,1.8-16.2,2.6-24.4,2.5c-18.2,0.2-36.4,0.2-54.7,0c-8.2-0.1-16.5-0.6-24.6-2.6
			c-20.6-5.2-33-18.4-37.3-39.2c-1.5-7.9-2.2-16-2.2-24C-0.1,115.6,0,107.1,0.1,98.6L0.1,98.6z"/>
		<path class="st0" d="M74.6,79.9c10.7,0.5,18.7,5.3,23.2,15.2c2,4.5,5.1,7.2,10.2,7.4s8.4-2.6,10.6-7c4.3-8.9,8.7-17.7,13.1-26.6
			c1.6-3.6,5.9-5.3,9.5-3.7c0.5,0.2,0.9,0.5,1.4,0.8c2.7,1.9,3.7,5.5,2.3,8.6c-4.9,10.2-9.6,20.4-15,30.3
			c-5,8.9-13.3,12.8-23.4,12.1s-17.2-5.9-21.5-15.1c-2.4-5.2-5.8-7.4-11.1-7.2c-4.4,0.2-7.4,2.5-9.3,6.3
			c-4.4,8.9-8.8,17.9-13.2,26.8c-1.2,2.6-3,4.3-5.9,4.7c-3.9,0.6-7.6-2.1-8.1-6.1c-0.2-1.4,0-2.9,0.7-4.2c1.8-4.2,3.9-8.2,5.9-12.3
			c2.7-5.4,5.3-10.9,8.1-16.3C56.9,84.6,64.6,80.4,74.6,79.9z"/>
		<path class="st0" d="M166.6,0C179.5,0,190,10.4,190,23.3c0,0.1,0,0.3,0,0.4c0,13.1-10.6,23.6-23.7,23.6
			c-13.1,0-23.6-10.6-23.6-23.7c0-13.1,10.6-23.6,23.7-23.6C166.5,0,166.5,0,166.6,0z M166.4,32.6c5,0.1,9.1-3.9,9.2-8.9
			c-0.1-5-4-9.1-9-9.3c-5-0.1-9.1,4-9.2,9c0,0.1,0,0.1,0,0.2c-0.1,4.8,3.7,8.9,8.5,9C166.1,32.6,166.2,32.6,166.4,32.6z"/>
	</g>
</g>
</svg>
