<?xml version="1.0" encoding="utf-8"?>
<!-- Generator: Adobe Illustrator 25.4.1, SVG Export Plug-In . SVG Version: 6.00 Build 0)  -->
<svg version="1.1" id="Layer_1" xmlns="http://www.w3.org/2000/svg" xmlns:xlink="http://www.w3.org/1999/xlink" x="0px" y="0px"
	 viewBox="0 0 147.8 131.7" style="enable-background:new 0 0 147.8 131.7;" xml:space="preserve">
<style type="text/css">
	.st0{fill:#C1A261;}
</style>
<g id="Layer_2_00000075123534621908817320000008821001553753539509_">
	<g id="Layer_1-2">
		<path class="st0" d="M0,121v-5.2c0.6-2,1.4-3.9,2.5-5.7C17,85,31.5,59.9,46,34.7c5.3-9.1,10.6-18.3,15.9-27.5
			c1.8-3.5,5.1-6.1,9-6.9C77.1-1,82.5,1.6,85.9,7.5c16,27.8,32.1,55.6,48.1,83.4c4,6.9,8,13.7,11.9,20.6c5.1,9.1-1.1,20.2-11.4,20.2
			c-40.5,0-80.9,0-121.4,0c-2,0-4-0.5-5.8-1.4C3.3,128.4,1.2,125,0,121z M74.2,89.1c1,0,2,0,3,0s1.4-0.3,1.5-1.3
			c0.3-5.9,0.6-11.8,0.9-17.7c0.2-4.4,0.5-8.8,0.7-13.2c0.3-6.1,0.8-12.3,1-18.4c0-4.1-3.4-7.3-7.5-7.3s-7.3,3.4-7.3,7.5
			c0.1,3.1,0.4,6.1,0.6,9.2c0.5,7.7,1.1,15.4,1.6,23.1c0.4,5.7,0.8,11.3,1.2,17c0.1,0.8,0.4,1.2,1.2,1.2
			C72.1,89.1,73.1,89.1,74.2,89.1z M73.9,98.2c-3.2,0-5.8,2.7-5.8,5.9s2.7,5.8,5.9,5.8c3.2,0,5.8-2.6,5.8-5.8
			C79.7,100.8,77.1,98.2,73.9,98.2z"/>
	</g>
</g>
</svg>
