<?xml version="1.0" encoding="utf-8"?>
<!-- Generator: Adobe Illustrator 25.4.1, SVG Export Plug-In . SVG Version: 6.00 Build 0)  -->
<svg version="1.1" id="Layer_1" xmlns="http://www.w3.org/2000/svg" xmlns:xlink="http://www.w3.org/1999/xlink" x="0px" y="0px"
	 viewBox="0 0 264 144.4" style="enable-background:new 0 0 264 144.4;" xml:space="preserve">
<style type="text/css">
	.st0{fill:#3B9C9C;}
</style>
<g id="Layer_2_00000152245025630057536350000017342972433984024704_">
	<g id="Layer_1-2">
		<path class="st0" d="M132,144.3c-4.4,0.1-7.4-2.1-10.3-4.9c-19.3-19.3-38.6-38.6-57.9-57.9C44.2,61.9,24.6,42.4,5.1,22.8
			C2.2,20,0,17,0,12.7c0-5.1,2-9,6.6-11.3c4.2-2.3,9.3-1.9,13.1,1C21,3.5,22.3,4.7,23.5,6c34.9,34.9,69.8,69.8,104.8,104.8
			c3.8,3.8,3.8,3.8,7.5,0l105-105c6.6-6.6,14.4-7.5,19.7-2.2c5.3,5.3,4.5,13.1-2.1,19.7c-38.5,38.5-77.1,77.1-115.6,115.6
			C139.8,142,136.5,144.6,132,144.3z"/>
	</g>
</g>
</svg>
