<?xml version="1.0" encoding="utf-8"?>
<!-- Generator: Adobe Illustrator 25.4.1, SVG Export Plug-In . SVG Version: 6.00 Build 0)  -->
<svg version="1.1" id="Layer_1" xmlns="http://www.w3.org/2000/svg" xmlns:xlink="http://www.w3.org/1999/xlink" x="0px" y="0px"
	 viewBox="0 0 378.5 378.5" style="enable-background:new 0 0 378.5 378.5;" xml:space="preserve">
<style type="text/css">
	.st0{fill:#0A3558;}
	.st1{fill:#3B9C9C;}
</style>
<g id="Layer_2_00000023248236116296739840000015391798045542834836_">
	<g id="Layer_1-2">
		<path class="st0" d="M212.4,88.8c37.7,0,75.3,0,113,0c3.9-0.1,7.8,0.2,11.6,0.9c15.1,3,25.2,15.7,25.2,31.9
			c0.1,45.1,0.1,90.2,0,135.4c0,1.4-0.1,2.7-0.2,4.1c-2.5,18.1-14.9,28.4-34.3,28.6c-15.1,0.1-30.2,0-45.3,0
			c-59.8,0-119.5,0-179.3,0c-4.5,0-9-0.2-13.4-0.5c-14-1-26.6-14.4-27.1-28.5c-0.2-4.4-0.1-8.8,0-13.1c0.1-5.1,3.3-8.7,7.8-8.8
			s8,3.5,8.2,8.5c0.2,3.6,0,7.2,0.1,10.9c0,1-0.3,2.2,0.6,2.8c1.3,0.8,2-0.6,2.8-1.2c11.1-9.5,22.2-19,33.3-28.5l45.5-39
			c3.3-2.9,3.3-2.9-0.1-5.8c-25.5-21.9-51-43.8-76.5-65.7c-1.5-1.3-3.1-3.9-4.7-3.1c-2,0.9-0.8,3.8-0.9,5.8
			c-0.2,2.6,0.1,5.3-0.1,7.9c-0.3,5-4,8.6-8.3,8.4c-4.3-0.2-7.8-3.8-7.7-8.9c0.1-6-0.7-12,0.7-17.9c3-13.3,14.4-22.9,27.9-23.8
			c16-0.9,31.9-0.3,47.9-0.4C163.5,88.7,188,88.8,212.4,88.8z M92.3,105.6c0.3,1.4,1.4,1.9,2.2,2.6c15.8,13.6,31.6,27.1,47.4,40.7
			c21.2,18.2,42.4,36.4,63.6,54.6c4.7,4,8.3,4.1,12.6,0.4c35.7-30.6,71.5-61.2,107.2-91.8c2.2-1.9,4.4-3.9,7.3-6.4L92.3,105.6z
			 M331.9,272.9c-0.5-1.8-1.8-2.4-2.8-3.3c-4.4-3.8-8.9-7.6-13.4-11.5c-21.6-18.5-43.1-37.1-64.7-55.7c-2.4-2.1-4-2.4-6.5,0
			c-5.4,5.1-11,9.8-16.6,14.6c-9.9,8.6-21.9,8.5-31.8-0.2c-5.6-4.9-11.4-9.7-16.9-14.8c-2.2-2-3.5-1.7-5.6,0.1
			c-22,19-44,38-66.1,56.9c-5.2,4.4-10.3,8.9-16,13.9H331.9z M346.1,189.3c0-21.7,0-43.5,0-65.2c0-1.5,0-3-0.2-4.5
			c-0.3-2.5-1.1-2.9-3.2-1.1c-26.3,22.7-52.6,45.3-79,67.8c-3,2.6-2.5,3.7,0.2,6c25.6,21.9,51.2,43.9,76.8,65.8
			c1.3,1.1,2.6,3.7,4.4,2.8s1.1-3.6,1.1-5.6C346.1,233.3,346.1,211.3,346.1,189.3L346.1,189.3z"/>
		<path class="st1" d="M58.6,216.5c-11.2,0-22.4,0-33.7,0c-3.4,0.2-6.5-1.7-7.8-4.8c-1.5-3-0.8-5.8,1.2-8.4c1.6-2,4-3.1,6.6-3
			c22.7,0,45.4-0.1,68.1,0c5.1,0,8.5,3.7,8.4,8.2s-3.6,7.8-8.7,7.9C81.3,216.5,70,216.5,58.6,216.5z"/>
		<path class="st1" d="M69.8,178.2c-7,0-14,0-21,0c-5.7,0-9.6-3.5-9.5-8.3s3.9-7.8,9.5-7.8c14.3,0,28.7,0,43,0c5.8,0,9.3,3,9.5,7.9
			c0.2,4.9-3.6,8.2-9.5,8.3C84.5,178.2,77.2,178.2,69.8,178.2z"/>
	</g>
</g>
</svg>
