<svg xmlns="http://www.w3.org/2000/svg" viewBox="0 0 383.56 383.55"><g id="Layer_2" data-name="Layer 2"><g id="Layer_1-2" data-name="Layer 1"><path d="M284,0h7.49c6.06,2.65,8.91,7.22,8.56,13.89-.19,3.6-.05,7.23,0,10.84,0,4.78.12,4.91,4.76,4.92q15,0,29.91,0c13.25,0,24.49,4.9,34.06,13.9,8,7.54,12.37,17,14.81,27.56v271c-.46,1.68-.9,3.37-1.38,5.05a49.52,49.52,0,0,1-47.95,36.4q-142.79,0-285.56,0c-26.3,0-48.6-22.2-48.62-48.4Q-.06,206.55.05,78c0-26,22.32-48.17,48.33-48.32,10.23-.06,20.46,0,30.69,0,4.66,0,4.76-.13,4.78-4.92,0-3.62.17-7.24,0-10.85C83.45,7.2,86.25,2.61,92.38,0h7.48c6.07,2.66,8.92,7.23,8.56,13.91-.19,3.48,0,7,0,10.47,0,5.25,0,5.27,5.17,5.27H270c5.51,0,5.51,0,5.52-5.67,0-3.37.16-6.75,0-10.1C275.07,7.2,277.88,2.61,284,0ZM192.34,132H31.83c-6.31,0-7.27.92-7.28,7q0,96.15,0,192.31c0,17,10.6,27.62,27.59,27.62q139.74,0,279.49,0a35.43,35.43,0,0,0,9.24-1.18c11.57-3.12,18.42-13.06,18.43-26.76q0-95.79,0-191.57c0-6.64-.85-7.47-7.58-7.48Z"/></g></g></svg>