<svg xmlns="http://www.w3.org/2000/svg" viewBox="0 0 214.83 197.64"><defs><style>.cls-1{fill:#0a3558;}.cls-2{fill:#3b9c9c;}.cls-3{fill:#c1a261;}</style></defs><g id="Layer_2" data-name="Layer 2"><g id="Layer_1-2" data-name="Layer 1"><polygon class="cls-1" points="99.96 66.77 99.96 158.95 72.47 144.64 72.47 78.47 99.96 66.77"/><polygon class="cls-1" points="60.5 78.47 60.5 138.4 38.7 127.05 38.7 87.75 60.5 78.47"/><polygon class="cls-1" points="141.95 78.47 141.95 144.64 114.46 158.95 114.46 66.77 141.95 78.47"/><polygon class="cls-1" points="175.72 62.85 175.72 127.05 154.09 138.32 154.09 69.27 141.95 64.1 114.46 52.4 114.46 36.76 141.95 48.47 154.09 53.64 175.72 62.85"/><polygon class="cls-2" points="99.96 36.76 99.96 52.39 72.47 64.1 60.5 69.19 38.7 78.47 38.7 62.84 60.5 53.56 72.47 48.46 96.04 38.43 99.96 36.76"/><polygon class="cls-3" points="175.72 26.08 175.72 47.22 154.09 38.01 141.95 32.84 114.46 21.14 114.46 0 141.95 11.7 154.09 16.87 175.72 26.08"/><path class="cls-1" d="M3,194.2c.25,1.12,1.06,1.62,2.36,1.62s1.85-.51,1.85-1.33-.54-1.31-2.46-1.76C1.68,192,.92,190.9.92,189.39c0-1.95,1.47-3.28,4.12-3.28,3,0,4.16,1.6,4.32,3.24H6.92c-.12-.69-.5-1.44-1.94-1.44-1,0-1.58.41-1.58,1.2s.48,1.1,2.29,1.52c3.26.77,4,2,4,3.56,0,2.05-1.55,3.45-4.51,3.45S.8,196.24.54,194.2Z" transform="translate(-0.54)"/><path class="cls-1" d="M13.8,188.26H10.4v-2h9.23v2h-3.4v9.23H13.8Z" transform="translate(-0.54)"/><path class="cls-1" d="M23.49,193v4.49H21.12V186.27h4.93c2.45,0,3.76,1.35,3.76,3.08A2.67,2.67,0,0,1,28.18,192c.56.21,1.4.79,1.4,2.79v.56a8.71,8.71,0,0,0,.16,2.14h-2.3a7.85,7.85,0,0,1-.23-2.52v-.17c0-1.22-.31-1.8-2.12-1.8Zm0-1.93h2c1.32,0,1.84-.51,1.84-1.45s-.6-1.42-1.79-1.42H23.49Z" transform="translate(-0.54)"/><path class="cls-1" d="M34.17,186.27V193c0,2.16,1.1,2.79,2.31,2.79,1.39,0,2.26-.75,2.26-2.79v-6.68h2.43v6.56c0,3.84-2.25,4.81-4.72,4.81s-4.71-1-4.71-4.76v-6.61Z" transform="translate(-0.54)"/><path class="cls-1" d="M53.2,194c-.45,2.09-2,3.61-4.84,3.61-3.56,0-5.24-2.51-5.24-5.7s1.74-5.83,5.36-5.83c3,0,4.43,1.75,4.7,3.63H50.76A2.2,2.2,0,0,0,48.4,188c-2,0-2.77,1.8-2.77,3.84s.67,3.89,2.83,3.89a2.23,2.23,0,0,0,2.3-1.71Z" transform="translate(-0.54)"/><path class="cls-1" d="M57.53,188.26H54.12v-2h9.23v2H60v9.23H57.53Z" transform="translate(-0.54)"/><path class="cls-1" d="M67.47,186.27V193c0,2.16,1.1,2.79,2.31,2.79,1.39,0,2.26-.75,2.26-2.79v-6.68h2.43v6.56c0,3.84-2.25,4.81-4.72,4.81s-4.71-1-4.71-4.76v-6.61Z" transform="translate(-0.54)"/><path class="cls-1" d="M79.39,193v4.49H77V186.27H82c2.45,0,3.76,1.35,3.76,3.08A2.66,2.66,0,0,1,84.08,192c.56.21,1.4.79,1.4,2.79v.56a8.71,8.71,0,0,0,.16,2.14h-2.3a7.85,7.85,0,0,1-.23-2.52v-.17c0-1.22-.31-1.8-2.12-1.8Zm0-1.93h2c1.33,0,1.84-.51,1.84-1.45s-.6-1.42-1.78-1.42h-2.1Z" transform="translate(-0.54)"/><path class="cls-1" d="M95.59,192.65H90.22v2.85h5.92l-.29,2h-8V186.27h7.95v2h-5.6v2.4h5.37Z" transform="translate(-0.54)"/><path class="cls-1" d="M97.87,186.27h4.45a5.11,5.11,0,0,1,5.4,5.47c0,3.27-2.07,5.75-5.51,5.75H97.87Zm2.42,9.26h1.82c2.15,0,3.1-1.6,3.1-3.79,0-1.83-.89-3.51-3.08-3.51h-1.84Z" transform="translate(-0.54)"/><path class="cls-1" d="M114.81,194.34a2.6,2.6,0,0,0,2.88,2.09c1.76,0,2.46-.83,2.46-1.9s-.55-1.77-2.82-2.32c-2.67-.65-3.6-1.56-3.6-3.15S115,186,117.5,186c2.7,0,3.8,1.55,4,3h-1.53a2.18,2.18,0,0,0-2.48-1.83c-1.38,0-2.16.62-2.16,1.7s.64,1.48,2.63,2c3.22.78,3.79,2,3.79,3.49,0,1.83-1.35,3.26-4.12,3.26s-4.07-1.56-4.3-3.29Z" transform="translate(-0.54)"/><path class="cls-1" d="M131,192.2h-5.63v4h6.18l-.19,1.29h-7.46V186.17h7.37v1.28h-5.9v3.46H131Z" transform="translate(-0.54)"/><path class="cls-1" d="M136.38,187.45h-3.66v-1.28h8.83v1.28h-3.66v10h-1.51Z" transform="translate(-0.54)"/><path class="cls-1" d="M146.27,187.45h-3.66v-1.28h8.83v1.28h-3.66v10h-1.51Z" transform="translate(-0.54)"/><path class="cls-1" d="M153.05,186.17h1.5v10h5.9l-.21,1.29h-7.19Z" transform="translate(-0.54)"/><path class="cls-1" d="M169.17,192.2h-5.63v4h6.18l-.19,1.29h-7.46V186.17h7.37v1.28h-5.9v3.46h5.63Z" transform="translate(-0.54)"/><path class="cls-1" d="M181.45,192.66c0-2.1,0-4.24.07-5.43h-.06c-.48,1.84-2.32,6.7-3.61,10.26H176.5c-1-2.9-2.88-8.35-3.38-10.28h-.05c.08,1.31.12,3.82.12,5.76v4.52h-1.41V186.17H174c1.28,3.51,2.85,8,3.24,9.48h0c.26-1.09,2.12-6.06,3.45-9.48h2.18v11.32h-1.47Z" transform="translate(-0.54)"/><path class="cls-1" d="M193.09,192.2h-5.63v4h6.18l-.19,1.29H186V186.17h7.37v1.28h-5.9v3.46h5.63Z" transform="translate(-0.54)"/><path class="cls-1" d="M195.68,197.49V186.17h2c1.62,2.64,5.15,8.27,5.79,9.5h0c-.11-1.45-.1-3.23-.1-5.08v-4.42h1.42v11.32h-1.87c-1.49-2.46-5.18-8.52-5.89-9.79h0c.08,1.29.08,3.21.08,5.25v4.54Z" transform="translate(-0.54)"/><path class="cls-1" d="M210.2,187.45h-3.66v-1.28h8.83v1.28h-3.66v10H210.2Z" transform="translate(-0.54)"/></g></g></svg>