<svg xmlns="http://www.w3.org/2000/svg" viewBox="0 0 194.35 194.29"><defs><style>.cls-1{fill:#c1a261;}.cls-2{fill:#3b9c9c;}</style></defs><g id="Layer_2" data-name="Layer 2"><g id="Layer_1-2" data-name="Layer 1"><path class="cls-1" d="M.08,97c0-10.17-.21-20.34.06-30.5.24-9,.86-18,3-26.82C8.14,19.61,20.85,7.49,40.9,2.91A126.46,126.46,0,0,1,66.62.17c13-.26,26-.15,39-.14,6,0,9.91,3.83,9.86,9.42,0,5.39-4,9.25-9.79,9.18-14.16-.15-28.3.28-42.45.62A91.76,91.76,0,0,0,45.2,21.31c-14.14,3.21-22,11.59-24.34,25.92A137.5,137.5,0,0,0,19.1,66.77c-.31,14.25-.86,28.5-.4,42.74.4,12.22-.13,24.51,2,36.64,3,17.15,12.57,26,30.07,27.78,18.26,1.89,36.59,1.63,54.92,1.68,6.16,0,10.12,4.11,9.8,10-.24,4.49-3.9,8.53-8.4,8.52-15.29,0-30.58.48-45.87-.38a116.29,116.29,0,0,1-22-2.86c-20-5-31.89-17.78-36.41-37.71A130.08,130.08,0,0,1,.13,127.49C-.12,117.33.07,107.16.08,97Z"/><path class="cls-2" d="M161.45,106.45h-3.72q-49.57,0-99.17,0c-6.37,0-10.42-4-10.11-10a9,9,0,0,1,8.38-8.56c1.13-.08,2.28,0,3.42,0h101c0-1.37-1-1.9-1.7-2.57Q145.2,70.81,130.76,56.42c-2.08-2.08-3.62-4.36-3.65-7.45,0-3.88,1.53-6.86,5-8.6a9.19,9.19,0,0,1,10,.79,17.75,17.75,0,0,1,2.33,2.09Q167.28,66.11,190.14,89c5.6,5.61,5.61,10.66,0,16.26Q167.3,128.13,144.43,151c-1.92,1.92-4,3.57-6.78,3.86a9.28,9.28,0,0,1-9.65-5.12c-1.81-3.75-1.09-8,2.16-11.25,9.64-9.71,19.34-19.36,29-29A6.86,6.86,0,0,0,161.45,106.45Z"/></g></g></svg>