<svg xmlns="http://www.w3.org/2000/svg" viewBox="0 0 197.65 197.64"><g id="Layer_2" data-name="Layer 2"><g id="Layer_1-2" data-name="Layer 1"><path d="M0,148.94a11.83,11.83,0,0,1,2.2-2.89c5.58-5.57,11.18-11.13,16.71-16.75,2.61-2.66,5.64-4.2,9.42-4a2.38,2.38,0,0,0,2.42-1.44c7.75-12.87,19.28-20,34-22.43a50.74,50.74,0,0,1,26.83,2.69,8.57,8.57,0,0,0,3.21.43c13.21,0,26.42,0,39.63,0,4.7,0,8.87,1.25,12.27,4.56,1,.95,1.57.64,2.36-.17,7.14-7.38,14.39-14.64,21.42-22.11,7.69-8.18,21.38-6.49,25.67,3.75C198.36,96,198.45,102,194.35,107c-6.83,8.32-13.78,16.56-20.68,24.82l-12.6,15A32.76,32.76,0,0,1,135.32,159q-25.29.27-50.59,0c-5.54-.06-9.08,2.89-12.46,6.53a1.69,1.69,0,0,0-.24,1.63c.88,4.84-.75,8.73-4.26,12.09-5.71,5.45-11.27,11-16.9,16.56-2.55,2.49-4.58,2.48-7.13-.08q-21-21.17-42-42.33A8.08,8.08,0,0,1,0,150.87Zm110.27,1.89v0c8.78,0,17.58.2,26.35-.07a23.58,23.58,0,0,0,17.81-8.64c5.61-6.59,11.13-13.26,16.69-19.9s11.22-13.35,16.74-20.1a7.45,7.45,0,0,0-11.14-9.9c-8.16,8.34-16.27,16.74-24.41,25.1a3.25,3.25,0,0,0-1,2.4c-.24,9.87-6.77,16.25-16.63,16.27q-14.43,0-28.86,0a10.22,10.22,0,0,1-2.48-.2,4,4,0,0,1,0-7.8,11.21,11.21,0,0,1,2.66-.22c9.88,0,19.76,0,29.63,0a7.18,7.18,0,0,0,7.45-7.17c.09-4.53-3-7.66-7.75-7.67q-20.88,0-41.75,0a9,9,0,0,1-3.59-.53,43.39,43.39,0,0,0-23.56-2.88c-12.16,1.74-21.75,7.57-28.42,18-.95,1.48-.81,2.35.42,3.58,8.85,8.74,17.63,17.56,26.43,26.36,2,2,2.06,2.06,3.95.08a21.21,21.21,0,0,1,16.4-6.67C93.59,150.89,101.93,150.83,110.27,150.83ZM27.75,133.38a4.74,4.74,0,0,0-2.87,1.42c-4.7,4.72-9.39,9.45-14.13,14.13-.78.78-.79,1.27,0,2,2.25,2.18,4.44,4.43,6.65,6.66Q31.67,172,45.93,186.44c.82.83,1.41,1.52,2.61.31,4.67-4.75,9.46-9.39,14.17-14.1,2-2,2-3.78.13-5.7q-16.08-16.14-32.2-32.23A4.49,4.49,0,0,0,27.75,133.38Z"/><path d="M120.46,0c5.91,1.06,11.61,2.72,16.71,6,12.42,8,19.41,19.23,20.38,34.06,1.42,21.66-14.32,41.46-36.82,44.63S76.23,71.55,73,49C69.56,25.26,85,4.18,108.77.26a7.92,7.92,0,0,0,.92-.26ZM115,76.87a34.51,34.51,0,0,0,34.59-34.41C149.5,23.88,135,8,115.08,8s-34.42,15.91-34.5,34.5A34.52,34.52,0,0,0,115,76.87Z"/><path d="M88.13,127.2a3.91,3.91,0,0,1,4.06,3.93,4,4,0,1,1-4.06-3.93Z"/><path d="M114.38,15.28a3.64,3.64,0,0,1,3.83,3.91c-.27,3,.51,5.1,3.52,6.24a7.06,7.06,0,0,1,2.49,2.06,3.92,3.92,0,0,1,.06,5.12,4.05,4.05,0,0,1-5.21.9c-.82-.49-1.53-1.19-2.36-1.66A4,4,0,0,0,112,32a3.26,3.26,0,0,0-1.14,3.79c.62,1.84,2,2.52,3.83,2.64a11.73,11.73,0,0,1,11.08,9.26c1.15,5.13-1.22,10.17-6.15,12.89a2.17,2.17,0,0,0-1.37,2.25,20.86,20.86,0,0,1,0,3.26,4,4,0,0,1-3.92,3.55c-2,0-4.12-1.67-3.91-3.68.34-3.28-.65-5.41-3.77-6.69a9.08,9.08,0,0,1-3.38-3.09,4,4,0,0,1,5.93-5.39,12.79,12.79,0,0,0,3.5,2.65,3.49,3.49,0,0,0,3.94-.58,3.29,3.29,0,0,0,1.12-3.62,3.24,3.24,0,0,0-3-2.57c-3.4-.31-6.56-1.2-9-3.82a11.67,11.67,0,0,1,2.91-18.4,2.62,2.62,0,0,0,1.65-2.85,13.44,13.44,0,0,1,0-2.69A3.85,3.85,0,0,1,114.38,15.28Z"/></g></g></svg>