<?xml version="1.0" encoding="utf-8"?>
<!-- Generator: Adobe Illustrator 25.4.1, SVG Export Plug-In . SVG Version: 6.00 Build 0)  -->
<svg version="1.1" id="Layer_1" xmlns="http://www.w3.org/2000/svg" xmlns:xlink="http://www.w3.org/1999/xlink" x="0px" y="0px"
	 viewBox="0 0 428.5 426.2" style="enable-background:new 0 0 428.5 426.2;" xml:space="preserve">
<style type="text/css">
	.st0{fill:#0A3558;}
	.st1{fill:#3B9C9C;}
	.st2{fill:#C1A261;}
</style>
<g id="Layer_2_00000102539835246813579860000005357467436346094232_">
	<g id="Layer_1-2">
		<path class="st0" d="M0,383.6c0.2-1.2,0.4-2.4,0.5-3.6c0.7-26,1.3-52.1,1.9-78.1c0.2-9.2,0.5-18.4,0.8-27.6
			c0.2-6.6,3.4-9.7,9.9-9.7c20.6,0.1,41.2,0.8,61.8,1.7c5.4,0.2,8.7,4.1,8.6,9.8c-0.1,2.2-0.4,4.4-0.4,6.7c-0.1,4.4,0.1,4.5,4,2.7
			c8.9-4.1,18.3-6.9,27.9-8.4c21.9-3.5,42.7,0.1,62.4,10c9.1,4.6,18.2,9.1,28.6,10c7.9,0.7,15.9,0.4,23.8,0.9
			c12.2,0.7,24.5,0.7,36.8,1c18,0.4,32.3,7.8,42.5,22.6c2.1,3,3.7,3.6,7.1,2c19.2-9.2,38.5-18.4,57.8-27.3c19.4-9,41.2-3,52.2,14.4
			c3.9,6.1,3,10.5-3.1,14.5c-46.3,29.9-92.5,60-139,89.6c-11.3,7.2-24.5,9.5-37.8,11c-19.6,2.3-37.7-3.7-56.1-8.9
			c-23.8-6.8-47.7-13.5-71.6-20.1c-8.3-2.3-16.2-1.9-23.8,2.5c-3.9,2.2-7.8,4.3-11.8,6.3c-2.1,0.9-3.4,3-3.2,5.2
			c-0.2,8.5-2.8,10.9-11.1,10.9c-20.1-0.1-40.1-0.9-60.1-1.6c-3.9-0.1-6.5-2.1-8.4-5.3L0,383.6z M297.6,359.6v0.1
			c-5.9-0.3-11.7-0.7-17.5-0.9c-21.4-0.6-42.9-1.1-64.3-1.7c-5.7-0.2-9.4-3.6-9.3-8.6c0.1-4.6,4.1-8.4,9.3-8.3
			c11.1,0.2,22.3,0.7,33.4,1c15.9,0.4,31.8,0.8,47.6,1.2c2.8,0.1,3.3-1,2.5-3.6c-3.7-11.9-16.4-22.2-28.9-22.8
			c-16.1-0.7-32.3-1.6-48.4-1.5c-17.9,0.3-35.5-3.8-51.4-12c-27.4-14.1-55.2-13.2-82.5,1.2c-3.2,1.7-5.7,3.5-5.8,7.8
			c-0.4,23.5-1.1,47.1-1.7,70.6c-0.1,5.4,0,5.6,4.7,2.9c12.4-7.2,25.2-8.4,39-4.4c28.3,8.2,56.9,15.9,85.2,24
			c12.8,3.7,25.5,5.6,38.8,3.7c10-1.5,19.8-3.5,28.4-9c42.6-27.5,85.2-55,127.8-82.6c3.5-2.3,3.5-2.6-0.3-4.8
			c-6.9-4.2-15.6-4.5-22.8-0.8c-18.3,8.7-36.6,17.7-55.2,25.9c-6.2,2.8-10.1,5.7-8.1,13c0,0.3,0,0.6,0,0.8c-0.3,5.4-3.4,8.5-8.7,8.6
			C305.4,359.8,301.5,359.7,297.6,359.6L297.6,359.6z M65.8,298.9H66c0-4.2,0-8.4,0-12.5c0-2-0.3-3.6-2.9-3.6
			c-13.2-0.3-26.5-0.6-39.7-1c-2.3-0.1-3.3,0.9-3.4,3.2c-0.1,3.5-0.5,7-0.6,10.4c-0.5,17.7-0.8,35.4-1.3,53.1
			c-0.4,17.1-0.9,34.2-1.4,51.4c-0.1,2.7,1,3.6,3.7,3.7c12.7,0.2,25.3,0.5,38,0.9c3.3,0.1,4.7-0.9,4.8-4.5
			C64.1,366.3,64.9,332.6,65.8,298.9z"/>
		<path class="st1" d="M307.8,268.7c-8.2-0.6-16.4,1.3-23.5,5.5c-17.2,9.7-34.6,9.4-51.7-0.5c-5.9-3.5-12.6-5.3-19.5-5.2
			c-20.9,0.6-36.5-8.3-46.7-26.5c-3-5.3-7.4-9.5-12.9-12.2c-18.4-9.6-27.8-24.7-27.4-45.6c0.1-6.3-1.6-12.5-5-17.8
			c-10.7-17.2-10.7-34.4,0-51.6c3.4-5.3,5.1-11.5,5-17.8c-0.3-20.7,8.8-35.8,27.1-45.3c5.8-3,10.7-7.7,13.9-13.5
			c9.6-16.8,24.2-25.4,43.6-25.3c8.2,0.1,16.4-2,23.5-6.1c15.9-8.9,32.3-9.3,48.3-0.6c8.2,4.5,17.4,6.8,26.7,6.7
			c17.3,0.1,30.9,8,39.9,22.7c4.4,7.4,10.7,13.5,18.3,17.7c15.9,8.9,24.1,22.8,24.1,41.1c-0.1,7.8,2,15.5,6.2,22.1
			c9.6,16,9.6,32.3,0,48.2c-4.1,6.5-6.2,14-6.1,21.7c0.1,19-8.6,33.1-25.2,42.1c-6.6,3.4-12.1,8.6-15.8,14.9
			C340.7,260.4,325.9,268.4,307.8,268.7z M143.2,184.5c-0.8,12.8,4.4,22.8,15.5,28.8c10,5.2,18.4,13.2,24,23
			c6,10.4,15.6,15.6,27.5,15.3c11.3-0.4,22.5,2.4,32.2,8.2c10.2,5.9,21.3,6.5,31.5,0.6c10.7-6.1,22.8-9.2,35.1-9
			c11.5,0.1,20.4-5.4,26.1-15.3c5.3-9.5,13.4-17.3,23.1-22.3c10.6-5.5,16.5-14.4,16.2-26.7c-0.3-10.9,2.7-21.7,8.6-30.9
			c6.5-10.2,6.5-20.9,0-31.2c-6-9.3-9-20.2-8.7-31.3c0.3-11.7-5.3-20.5-15.4-25.8c-10.2-5.3-18.6-13.4-24.3-23.4
			c-6.1-10.5-16.1-15.2-28.1-14.9c-10.6,0.2-20.5-1.8-29.6-7.2c-12.1-7.2-24.2-7.3-36.4,0c-8.2,5.1-17.8,7.6-27.5,7.3
			c-14.4-0.5-25.1,5-32,17.6c-4.5,8.3-11.4,14.9-19.9,19.1c-12.5,6.2-18.7,16.2-18.2,30.2c0.3,9.7-2.4,19.2-7.8,27.3
			c-7.1,11.1-7.2,22.3-0.1,33.3C140.7,165.4,143.4,174.9,143.2,184.5z"/>
		<path class="st2" d="M209.7,224.8c-4.4,0.1-8.4-7-4.8-13.2c4.9-8.3,10.1-16.4,15.2-24.5l76.7-122.9c0.5-0.8,1-1.7,1.6-2.5
			c3.5-5.2,7.9-6.5,12.4-3.8c4.2,2.7,5.1,7.4,2,12.5c-5.8,9.6-11.7,18.9-17.6,28.4c-24.7,39.6-49.4,79.1-74.1,118.7
			C218.8,221,216.8,224.5,209.7,224.8z"/>
		<path class="st2" d="M337.4,178.9c0.1,14.2-4.2,25.1-13.8,33.7c-13.9,12.4-34.3,10.8-46.7-3.2c-14.1-16.1-14.1-41.9,0-57.9
			c16.6-18.7,45.2-13.9,56.2,9.4C336.1,167,337.7,173.5,337.4,178.9z M301.9,157c-5.8-0.1-10.1,2.6-13.5,7.1
			c-6.7,9.3-7,21.8-0.9,31.4c7.3,11.3,21.1,11.4,28.7,0.3c6.2-9.1,5.9-23.1-0.8-31.8C312.1,159.6,307.7,156.8,301.9,157z"/>
		<path class="st2" d="M180.4,97.5c0.6-12.2,6.3-25.3,20.6-33.2c12.3-6.8,26.9-4.6,37.2,4.9c17,15.7,18.1,44.1,2.5,61.1
			c-15.2,16.4-39.4,14.6-52.5-4.1C183.1,119,180.4,110.2,180.4,97.5z M197.5,101c-0.3,5.6,1.3,11.2,4.6,15.8
			c7.6,10.5,20.6,10.3,28-0.3c6.1-8.8,6.2-21.9,0.3-30.8c-7.4-11.1-20.8-11.3-28.4-0.4C198.7,89.9,197.1,95.4,197.5,101L197.5,101z"
			/>
	</g>
</g>
</svg>
