<?xml version="1.0" encoding="utf-8"?>
<!-- Generator: Adobe Illustrator 25.4.1, SVG Export Plug-In . SVG Version: 6.00 Build 0)  -->
<svg version="1.1" id="Layer_1" xmlns="http://www.w3.org/2000/svg" xmlns:xlink="http://www.w3.org/1999/xlink" x="0px" y="0px"
	 viewBox="0 0 160.6 192.3" style="enable-background:new 0 0 160.6 192.3;" xml:space="preserve">
<style type="text/css">
	.st0{fill:#0A3558;}
</style>
<g id="Layer_2_00000105428285596858028340000011643613961922047616_">
	<g id="Layer_1-2">
		<path class="st0" d="M75.8,192.3c-5.7-1.1-10.9-3.8-15.1-7.8c-3.9-3.7-6.7-8.6-7.8-13.9c-0.4-1.9-1.2-2.3-3-2.3
			c-12.4,0.1-24.8,0-37.1,0c-5.6,0-10.1-3-11.9-8s-0.3-10,3.8-13.7c12.6-11.1,19.2-25,19.3-41.9c0.1-7.6,0-15.2,0-22.9
			c0-25.8,14.2-46.2,38.4-55c1.1-0.3,1.8-1.3,1.7-2.5c0.1-3.7-0.4-7.5,0.3-11.2c1.5-8.3,8.9-13.8,17.8-13.1
			c7.6,0.6,14.1,7.6,14.3,15.6c0.1,2.9,0.1,5.8,0,8.6c-0.2,1.3,0.6,2.5,1.9,2.7c19.7,7.3,32,21.1,36.9,41.5
			c0.9,4.1,1.4,8.3,1.3,12.5c0,7.6,0,15.1,0,22.7c-0.1,17.4,6.5,31.7,19.5,43.2c3.7,3.3,5.3,7.4,4.1,12.3c-1,4.5-4.6,8-9.1,9
			c-1.1,0.2-2.2,0.3-3.4,0.2c-12.5,0-25,0-37.5,0c-1.3,0-2,0.4-2.3,1.8c-2.9,11.7-10.3,18.9-22,21.8c-0.4,0.1-0.7,0.2-1.1,0.3
			L75.8,192.3z M80.1,160h66c0.8,0,1.6,0,2.4,0c2-0.1,3.6-1.8,3.5-3.9c0-0.8-0.4-1.6-0.9-2.2c-0.7-0.8-1.6-1.6-2.4-2.4
			c-13.5-12.8-20.5-28.5-20.6-47.2c0-7.6,0-15.3,0-22.9c0-3.4-0.3-6.7-0.9-10.1c-4.3-22.8-24.8-39.5-48-38.8
			c-16,0.5-28.6,7.3-38,20.1c-6.2,8.4-8.8,18-8.9,28.4c-0.1,8.1,0,16.1,0,24.2c-0.1,14.4-5.1,28.3-14.2,39.5c-2.6,3.1-5.4,6-8.5,8.8
			c-1.5,1.4-1.7,3.7-0.3,5.2c0.7,0.8,1.7,1.2,2.8,1.2h2.2L80.1,160z M80.3,168.4c-5.9,0-11.8,0-17.6,0c-1.5,0-1.7,0.5-1.3,1.8
			c2.3,8,10.2,13.8,18.9,13.8s16.6-5.8,18.9-13.8c0.4-1.3,0.2-1.8-1.3-1.8C92,168.4,86.2,168.4,80.3,168.4L80.3,168.4z M88.1,19.2
			L88.1,19.2c0-1.2,0.1-2.5,0-3.7c-0.5-4.3-4.3-7.4-8.6-6.9c-3.6,0.4-6.5,3.2-6.9,6.8c-0.2,2.5,0,5.1-0.1,7.7c0,1,0.4,1.5,1.5,1.3
			c4.2-0.5,8.4-0.5,12.5,0c1.2,0.1,1.6-0.3,1.6-1.4S88.1,20.4,88.1,19.2z"/>
	</g>
</g>
</svg>
