<?xml version="1.0" encoding="utf-8"?>
<!-- Generator: Adobe Illustrator 25.4.1, SVG Export Plug-In . SVG Version: 6.00 Build 0)  -->
<svg version="1.1" id="Layer_1" xmlns="http://www.w3.org/2000/svg" xmlns:xlink="http://www.w3.org/1999/xlink" x="0px" y="0px"
	 viewBox="0 0 149.3 149.2" style="enable-background:new 0 0 149.3 149.2;" xml:space="preserve">
<style type="text/css">
	.st0{fill:#0A3558;}
</style>
<g id="Layer_2_00000146493230000435593240000007888221439819342252_">
	<g id="Layer_1-2">
		<path class="st0" d="M27.6,32c3.5,0,6.6,0,9.6,0c3.4,0,5.7,2.2,5.7,5.4c0.1,2.9-2.2,5.4-5.2,5.5c-0.2,0-0.3,0-0.5,0
			c-7,0-14,0-20.9,0c-2.9,0.2-5.4-2-5.6-4.9c0-0.2,0-0.4,0-0.6c0-7,0-14.1,0-21.1c-0.1-2.9,2.1-5.4,5-5.5c0.1,0,0.3,0,0.4,0
			c2.9-0.1,5.4,2.2,5.5,5.2c0,0.1,0,0.3,0,0.4c0,1.9,0,3.7,0,6c2.3-2.2,4.4-4.1,6.6-5.9c10.5-8.5,23.2-14,36.6-15.7
			c15-2,29.5,0.1,42.9,7.1c23.2,11.9,37.2,30.9,40.8,56.8c3.4,24.8-4.3,46.2-22.1,63.8c-11.9,11.9-27.7,19.2-44.5,20.5
			c-23.5,2.1-43.7-5.3-60.4-21.9C10,115.6,2.7,100.7,0.7,84.7C-0.6,75.6-0.1,66.4,2,57.5C2.8,54,5.6,52.2,8.8,53s4.6,3.6,3.9,7
			c-4.8,23.4,0.9,43.8,17.8,60.6c10.2,10.2,23.8,16.4,38.2,17.5c20.2,1.7,37.5-4.7,51.6-19.1c9.8-9.8,15.9-22.6,17.4-36.3
			c2.4-21.3-4.2-39.6-19.7-54.4c-10-9.7-23.1-15.6-37-16.7c-20.1-1.8-37.4,4.5-51.8,18.7C28.8,30.7,28.3,31.2,27.6,32z"/>
		<path class="st0" d="M73.3,99.7c-3.3-0.5-6.4-1.8-9-3.9c-2.8-2.4-4.8-5.6-5.7-9.1l7.8-3.2c0.4,1.8,1.3,3.5,2.5,4.8
			c1.2,1.4,2.7,2.4,4.4,2.9V78.4l-0.6-0.3c-1.6-0.6-3.2-1.4-4.7-2.2c-1.4-0.8-2.7-1.8-3.9-3c-1.1-1.1-2-2.4-2.6-3.8
			c-0.7-1.5-1-3.1-1-4.8c0-1.6,0.3-3.1,0.9-4.6c0.6-1.4,1.4-2.8,2.5-3.9c1.2-1.2,2.5-2.1,4-2.8c1.7-0.8,3.5-1.3,5.3-1.5v-5.8h6v6
			c1.6,0.2,3.2,0.7,4.7,1.4c1.2,0.6,2.4,1.4,3.4,2.3c0.9,0.8,1.7,1.8,2.3,2.8c0.6,0.9,1,1.9,1.3,2.9l-7.6,3.4
			c-0.3-0.9-0.8-1.8-1.5-2.6c-0.8-0.9-1.7-1.6-2.8-2v12.2c1.8,0.7,3.6,1.6,5.3,2.5c1.5,0.8,2.8,1.8,4.1,2.9c1.1,1,2,2.3,2.6,3.7
			c0.6,1.5,0.9,3.1,0.9,4.8c0,1.9-0.3,3.7-1,5.4c-0.7,1.5-1.6,2.9-2.8,4.1c-1.2,1.1-2.6,2.1-4.1,2.7c-1.5,0.7-3.2,1.2-4.8,1.4v6h-6
			L73.3,99.7z M68.8,64.3c0,1,0.3,2,1,2.8c1,1,2.1,1.8,3.4,2.4v-9.9c-1.2,0.3-2.3,0.9-3.2,1.8C69.2,62.2,68.8,63.2,68.8,64.3z
			 M83.4,86.1c0-1.1-0.3-2.1-1-2.9c-0.9-1-2-1.7-3.2-2.3v10.4c1.2-0.4,2.2-1,3-1.9C83,88.4,83.5,87.3,83.4,86.1z"/>
	</g>
</g>
</svg>
