<?xml version="1.0" encoding="utf-8"?>
<!-- Generator: Adobe Illustrator 25.4.1, SVG Export Plug-In . SVG Version: 6.00 Build 0)  -->
<svg version="1.1" id="Layer_1" xmlns="http://www.w3.org/2000/svg" xmlns:xlink="http://www.w3.org/1999/xlink" x="0px" y="0px"
	 viewBox="0 0 246.6 204.1" style="enable-background:new 0 0 246.6 204.1;" xml:space="preserve">
<style type="text/css">
	.st0{fill:#C1A261;}
</style>
<g id="Layer_2_00000004515107617546384060000006883543230117753247_">
	<g id="Layer_1-2">
		<path class="st0" d="M42.3,96.6c-8.7-2-16.8-6.1-23.6-12C-1,67.2-2.6,35.2,15.3,15.9C24.4,6.1,35.5,0.6,48.9,0
			c3.7-0.2,6,3,4.6,6.1c-0.8,1.9-2.4,2.7-4.4,2.8c-8.4,0.3-16.5,3-23.2,7.9C13.3,25.8,7.2,42.4,11,58c3.7,15.3,16.7,27.4,31.9,29.6
			c22,3.2,41.4-10.4,45.5-32.1c1.9-10.1-0.3-20.6-6.2-29c-0.6-0.9-1.3-1.7-1.8-2.6c-1.3-2.1-0.7-4.8,1.4-6.1
			c1.9-1.2,4.3-0.8,5.7,0.9c1.3,1.6,2.5,3.2,3.5,5c13.8,23.1,6.2,53-16.9,66.8c-4.1,2.4-8.5,4.3-13.1,5.4l-2.3,0.6v0.2
			c9.7,0,19.5,0,29.2,0c3.9,0,7.7,1.2,8.8,5.1c2.1,7.1,2.1,14.7,0,21.9c-1,3.6-4.6,5-8.3,5.1c-4,0.1-8,0.1-11.9,0
			c-1.9,0-2.9,0.6-2.6,2.6c0,0.3,0,0.5,0,0.8c-0.1,3.7-1.7,5.7-4.5,5.7s-4.5-2-4.7-5.6c-0.1-3.4-0.1-3.4-3.6-3.4
			c-16.4,0-32.7,0-49.1,0c-2.5,0-3.5,0.6-3.3,3.3s0.1,5.5,0,8.2c0,1.6,0.6,2.3,2.2,2.2c0.8,0,1.6,0,2.4,0c24.1,0,48.3,0,72.4,0
			c1.6,0,3.2,0.1,4.8,0.4c4.3,0.7,7.5,4.4,7.5,8.8c0.1,4.6,0.1,9.2,0,13.8c0.1,4.8-3.7,8.9-8.5,9c-0.2,0-0.4,0-0.6,0
			c-22.8,0-45.6,0-68.4,0c-3.5,0-5-1.5-5.1-5c-0.1-2.7-0.1-5.5,0-8.2c0.1-3,1.9-4.9,4.5-4.9s4.2,2,4.4,4.8c0.2,4.5,0.2,4.5,4.9,4.5
			H66c3.5,0,3.5,0,3.6-3.4c0-0.6,0-1.2,0.1-1.9c0.2-2.1,2-3.8,4.1-3.9c2.1-0.3,4.1,1.1,4.6,3.2c0.1,0.3,0.2,0.7,0.2,1
			c0.9,4.9,0.9,4.9,6,4.9c0.6,0,1.2,0,1.9,0c2.1,0.2,2.8-0.7,2.8-2.8c-0.1-2.9-0.1-5.8,0-8.8c0.1-1.8-0.7-2.5-2.5-2.5
			c-3.2,0.1-6.4,0-9.6,0H10.8C3.4,151.6,0,148.1,0,140.7c0-3.8,0-7.6,0-11.4c0-5.4,3.2-9,8.6-9.7c1.1-0.1,2.3-0.1,3.4-0.1h73.5
			c3.6,0,3.6,0,3.6-3.7c0-2.4-0.1-4.8,0-7.2s-0.8-2.9-2.9-2.8c-5.5,0.1-11,0-16.5,0c-14.1,0-28.1,0.1-42.2-0.1
			c-2.7,0-3.8,0.8-3.4,3.5c0.1,0.5,0.1,1.1,0,1.6c-0.1,2.3-2,4.2-4.4,4.1c-2.3,0.2-4.2-1.6-4.4-3.8c0-0.1,0-0.1,0-0.2
			c-0.1-3.3-0.2-6.7,0-10.1c0.1-2.8,2-4.2,5.4-4.2C28,96.6,35.2,96.6,42.3,96.6z"/>
		<path class="st0" d="M208.3,204.1c-21.2,0-38.4-17.3-38.3-38.5c0-21.2,17.3-38.4,38.5-38.3c21.3,0,38.2,17.1,38.2,38.6
			c0,21-17,38.1-38.1,38.2C208.5,204.1,208.4,204.1,208.3,204.1z M208.3,195.2c16.9-0.7,29.3-13.2,29.2-29.6
			c-0.1-16.9-12.9-29.5-29.6-29.3c-16.9,0.1-29.3,13.1-29.1,29.6C179,183,192.1,194.8,208.3,195.2z"/>
		<path class="st0" d="M167.4,33.9h53.9c12.4,0,21.1,8.5,21.1,20.9c0,23.9,0,47.8,0,71.6c0,3.5-1.6,5.4-4.4,5.4
			c-2.2,0.1-4.2-1.5-4.4-3.7c-0.1-1-0.1-1.9-0.1-2.9V56.8c0-9.7-4.4-14-14.1-14H112.7c-4.6,0-6.5-1.3-6.5-4.3s1.9-4.5,6.6-4.5
			L167.4,33.9z"/>
		<path class="st0" d="M153.9,59.8h-41.1c-0.9,0-1.8,0-2.7,0c-2.4-0.3-4.2-2.4-3.9-4.8c0.2-2,1.8-3.7,3.8-3.9c0.8-0.1,1.6-0.1,2.4,0
			h89.7c4.9,0,5.8,0.8,6.4,5.7c0.3,2.5,0.4,4.9,1.3,7.3c1.6,4.2,4.5,6.8,9.2,7.3c5.6,0.6,6.4,1.5,6.4,7.2v34c0,0.7,0,1.4,0,2.1
			c-0.1,2.9-1.8,4.6-4.3,4.7s-4.5-1.8-4.5-4.8c-0.1-9.9,0-19.8,0-29.7c0-0.9,0-1.8,0-2.7c0.2-1.1-0.6-2.1-1.7-2.3c0,0,0,0,0,0
			c-8.5-2.5-12.9-8.6-14.7-16.8c-0.5-2.5-1.5-3.2-4-3.2C182,59.8,168,59.8,153.9,59.8z"/>
		<path class="st0" d="M28.3,48.1c0,11.9,8.8,20.9,20,21c11.8,0.2,21-8.6,21.3-20.1c0-1-0.1-2,0.1-2.9c0.3-2.4,1.6-3.9,4-4.2
			c2.3-0.3,4.4,1.3,4.8,3.6c0.6,2.7,0.1,5.5-0.3,8.2c-2.8,16.2-18.1,27-34.3,24.2c-13-2.2-23-12.8-24.5-26
			c-1.2-11.4,2.9-20.9,12.4-27.6s19.4-7.4,29.9-2.6c2.9,1.3,3.9,3.8,2.8,6.2c-1.1,2.4-3.6,3.4-6.5,2.1c-9.2-4.4-20.3-1.5-26.1,6.9
			C29.5,40.1,28.3,44,28.3,48.1z"/>
		<path class="st0" d="M123.1,121.5c1.3,0.1,2.7-0.2,3.9-0.7c3.5-1.7,4.3-5.4,1.9-8.3c-2.2-2.7-5.4-3.9-8.5-5.1
			c-4.3-1.7-8.1-4.5-10.9-8.2c-5.1-6.7-3.8-13.8,3.4-18.2c1.2-0.7,2.5-1.3,3.8-1.8c1.4-0.2,2.3-1.4,2.3-2.8c0-2.3,1.8-4.2,4.1-4.2
			c0.1,0,0.3,0,0.4,0c2.3-0.1,4.2,1.7,4.3,3.9c0,0.2,0,0.3,0,0.5c-0.3,2.1,0.9,4,2.9,4.7c2.2,1,4.2,2.4,5.8,4.1
			c1.7,1.6,1.9,4.2,0.4,6c-1.4,1.9-4,2.3-5.9,0.9c-2.1-1.3-3.9-3-6.3-3.9c-2.6-1-5.2-1.2-7.5,0.7c-1.5,1.2-1.8,2.4-0.6,4.1
			c2,2.8,4.7,4.8,7.9,6c3.9,1.4,7.5,3.6,10.6,6.4c7.6,7.7,5.5,19.2-4.4,23.6c-2,0.9-2.8,1.9-2.8,4.1c0.1,3.2-1.7,5.1-4.5,5
			s-4.4-1.9-4.3-4.9c0.1-2.3-0.7-3.2-2.9-3.9c-7-2.2-10.5-8.6-8.7-15.4c0.5-2.5,2.9-4,5.4-3.5c2.1,0.4,3.5,2.2,3.6,4.3
			C116.3,120.2,117.6,121.5,123.1,121.5z"/>
		<path class="st0" d="M133.9,157.4h-22c-3.8,0-5.7-1.5-5.7-4.4s1.9-4.5,5.6-4.5c14.8,0,29.7,0,44.5,0c3.5,0,5.4,1.5,5.4,4.4
			s-1.9,4.5-5.6,4.5H133.9z"/>
		<path class="st0" d="M133.9,174.4c-7.7,0-15.4,0.1-23.1,0c-3.8,0-5.9-3.5-4.2-6.6c0.8-1.5,2.5-2.4,4.2-2.3c15.4,0,30.7,0,46.1,0
			c3,0,4.8,1.8,4.7,4.5s-1.8,4.3-4.7,4.3C149.3,174.4,141.6,174.4,133.9,174.4z"/>
		<path class="st0" d="M213.7,170.2h-21.4c-3.5,0-5.4-1.6-5.4-4.4s1.8-4.5,5.3-4.5c6.3,0,12.6,0,18.8,0h3.4l-6.7-6.7
			c-0.9-0.9-1.9-1.8-2.8-2.8c-1.7-1.8-1.6-4.5,0.1-6.2c1.7-1.7,4.4-1.7,6.2-0.1c0,0,0,0,0.1,0.1c3.7,3.5,7.3,7.2,10.9,10.8
			c1.9,1.9,3.9,3.8,5.8,5.8c2.2,2.3,2.3,4.9,0.1,7.1c-5.4,5.6-10.9,11.1-16.5,16.5c-1.8,1.8-4.7,1.9-6.6,0.1c0,0-0.1-0.1-0.1-0.1
			c-1.8-1.8-1.6-4.5,0.4-6.6c2.8-2.8,5.7-5.6,8.5-8.3L213.7,170.2z"/>
	</g>
</g>
</svg>
