<svg xmlns="http://www.w3.org/2000/svg" viewBox="0 0 198.23 183.3"><g id="Layer_2" data-name="Layer 2"><g id="Layer_1-2" data-name="Layer 1"><path d="M198.23,53.35v83.18c-.11.23-.23.46-.33.7-3,7.4-7.25,10.26-15.27,10.27h-17.4c-2.87,0-2.87,0-2.88,2.93,0,8.58,0,17.15,0,25.72,0,4.37-2.2,6.66-6.54,7-1.09.1-2.19.11-3.28.11H46c-.84,0-1.68,0-2.51,0-5.27-.28-7.39-2.52-7.4-7.81,0-8.51,0-17,0-25.53,0-1.83-.56-2.49-2.44-2.46-6.32.09-12.64.06-19,0C6.08,147.44,0,141.44,0,132.9q0-38,0-76c0-8.49,6-14.47,14.5-14.51,6.19,0,12.38,0,18.57,0,2.93,0,2.94,0,2.94-2.85,0-3.94,0-7.87,0-11.8C36,21,36,14.18,36,7.41c0-4.64,2.13-6.93,6.67-7.31C43.87,0,45,0,46.19,0h105.4c1,0,2.07,0,3.1,0,5.52.22,7.65,2.43,7.66,7.94q0,16,0,31.91c0,2.42.07,2.49,2.53,2.49h19.73a13.59,13.59,0,0,1,8.54,3.14C195.76,47.56,197.16,50.34,198.23,53.35Zm-99,1.31H15.9c-3,0-3.6.59-3.6,3.44v73.68c0,2.66.53,3.21,3.16,3.22q9,0,18,0c2.41,0,2.58-.2,2.58-2.71q0-12.47,0-24.94c0-5.68,2.33-8,8-8q55.22,0,110.44,0c5.53,0,7.89,2.38,7.9,7.9q0,12.58,0,25.15c0,2.43.19,2.62,2.65,2.63,5.74,0,11.48,0,17.22,0,3.51,0,3.86-.35,3.86-3.88V58.6c0-3.5-.46-3.94-4.06-3.94Zm.15,57.22H51.45c-2.82,0-2.85,0-2.85,2.78q0,26.68,0,53.37c0,2.76,0,2.79,2.82,2.79h95.52c2.82,0,2.85,0,2.85-2.77V114.68c0-2.76,0-2.8-2.82-2.8ZM99,42.37c16.11,0,32.22,0,48.33,0,1.8,0,2.53-.47,2.51-2.39q-.1-12.55,0-25.13c0-1.87-.64-2.43-2.48-2.43q-48.12.08-96.26,0c-2.37,0-2.48.1-2.48,2.55q0,12.27,0,24.55c0,2.76,0,2.78,2.83,2.78Z"/><path d="M164.72,77A8.66,8.66,0,1,1,156,68.34,8.63,8.63,0,0,1,164.72,77Z"/><path d="M99.19,159.46c-8.83,0-17.66,0-26.49,0-4.13,0-6.9-2.59-6.9-6.24a6,6,0,0,1,4.79-6,16.15,16.15,0,0,1,3.26-.3q25.35,0,50.68,0a16.07,16.07,0,0,1,2.69.18,6.08,6.08,0,0,1,5.36,6.48,6.19,6.19,0,0,1-5.92,5.81c-2,.14-4,.06-6,.06Z"/><path d="M99,135.53c-9,0-18,.06-27.07,0a6.05,6.05,0,0,1-5.38-9.06,6.22,6.22,0,0,1,6-3.22c9.08,0,18.17,0,27.26,0,8.83,0,17.67,0,26.5,0a6.12,6.12,0,0,1,5.66,8.94,6,6,0,0,1-5.86,3.35q-13.53,0-27.07,0Z"/></g></g></svg>