<?xml version="1.0" encoding="utf-8"?>
<!-- Generator: Adobe Illustrator 25.4.1, SVG Export Plug-In . SVG Version: 6.00 Build 0)  -->
<svg version="1.1" id="Layer_1" xmlns="http://www.w3.org/2000/svg" xmlns:xlink="http://www.w3.org/1999/xlink" x="0px" y="0px"
	 viewBox="0 0 100.7 134.2" style="enable-background:new 0 0 100.7 134.2;" xml:space="preserve">
<style type="text/css">
	.st0{fill:#C1A261;}
</style>
<g id="Layer_2_00000029006617169703683080000006244926224289417638_">
	<g id="Layer_1-2">
		<path class="st0" d="M90.4,134.2H10.3l-0.8-0.2c-6.1-1.8-9.6-6.4-9.6-12.8C0,101.7,0,82.4,0,63c-0.1-6,4.1-11.2,10-12.4
			c1.8-0.3,3.6-0.3,5.5-0.2c0.9,0,1.3-0.3,1.2-1.2c0-1.9,0-3.8,0-5.6c0.1-4.7-0.3-9.4,0.2-14.1C19.2,10.8,37-2.6,55.6,0.4
			C71.9,3,84,17.1,83.9,33.6c0,5.1,0,10.1,0,15.2c0,1.2,0.4,1.6,1.5,1.5c1-0.1,1.9,0,2.9,0c6.8,0.1,12.3,5.6,12.4,12.4
			c0,19.8,0,39.5,0,59.3c0,1.1-0.2,2.2-0.5,3.2C98.7,130.1,95.2,132.9,90.4,134.2z M50.2,50.3h20.3c2,0,2,0,2-1.9
			c0-4.9,0-9.8,0-14.7c-0.1-12.2-10.2-22-22.4-21.9C38.2,12,28.5,21.5,28.2,33.4c0,5.1,0,10.1,0,15.2c0,1.7,0,1.8,1.8,1.8H50.2z
			 M44.9,100.5c0,1.8,0,3.6,0,5.4c0,3.4,2.2,5.7,5.5,5.7c2.9,0,5.3-2.3,5.4-5.3c0-0.1,0-0.3,0-0.4c0-3.5,0.1-7,0-10.5
			c-0.1-1.2,0.4-2.4,1.5-3.1c4.1-3.2,5.4-8.8,3-13.4c-2.3-4.7-7.6-7.1-12.7-5.7c-5.8,1.5-9.3,7.5-7.8,13.4c0.6,2.3,2,4.4,3.9,5.9
			c0.9,0.6,1.4,1.6,1.3,2.6C44.9,97,44.9,98.7,44.9,100.5z"/>
	</g>
</g>
</svg>
