<?xml version="1.0" encoding="utf-8"?>
<!-- Generator: Adobe Illustrator 25.4.1, SVG Export Plug-In . SVG Version: 6.00 Build 0)  -->
<svg version="1.1" id="Layer_1" xmlns="http://www.w3.org/2000/svg" xmlns:xlink="http://www.w3.org/1999/xlink" x="0px" y="0px"
	 viewBox="0 0 144.1 171.2" style="enable-background:new 0 0 144.1 171.2;" xml:space="preserve">
<style type="text/css">
	.st0{fill:#C1A261;}
	.st1{fill:#3B9C9C;}
</style>
<g id="Layer_2_00000066498792712111449040000001568973550085791415_">
	<g id="Layer_1-2">
		<path class="st0" d="M73.7,0c3,1.2,4.9,3.8,7.3,5.8c11.1,9.4,24.7,15.5,39.1,17.5c5.6,0.9,11.3,1.3,17,1.3c4.1,0,6.5,2.4,6.6,6.5
			c0.5,12.8,0.6,25.7,0.2,38.6c-0.4,16.3-2.6,32.4-8.9,47.6c-6.1,15-16.3,28-29.4,37.5c-9.6,6.8-20.1,12.2-31.3,15.9
			c-1.5,0.5-3.1,0.5-4.6,0c-11.3-4-22-9.1-31.7-16.3c-14-10.2-24.5-24.3-30.4-40.5c-3.6-10.1-5.8-20.7-6.7-31.4
			c-1.7-17.4-1-34.9-0.6-52.3C0.5,27,3.3,24.7,7,24.6c7,0,14-0.7,20.9-2c14.1-2.7,27.2-9.4,37.8-19.2c1.4-1.3,2.8-2.7,4.7-3.4H73.7z
			 M131.4,59.4c0-7,0-13.9,0-20.9c0-1.2-0.4-1.7-1.6-1.7c-5-0.3-10-0.9-14.9-1.8c-15.1-2.7-29.2-9.2-41-19c-2.2-1.9-1.5-1.8-3.8,0
			c-9.1,7.5-19.6,13.1-30.8,16.5c-8.2,2.4-16.6,3.8-25.1,4.2c-1.1,0.1-1.6,0.4-1.6,1.6c-0.1,13.1-0.7,26.2,0.3,39.2
			c0.6,9,2.1,17.9,4.5,26.6c3.3,11.9,9.4,22.7,17.9,31.6c10,10.4,22.2,17.2,35.5,22.2c0.9,0.3,1.9,0.3,2.8-0.1
			c5.3-2,10.5-4.4,15.4-7.1c11.3-6.3,20.9-14.5,28.1-25.4c6.2-9.5,9.9-20,12-31.1C131.1,82.8,131.9,71.1,131.4,59.4z"/>
		<path class="st1" d="M47,79.4c1.9,0,3.7,0.8,5,2.2c3.5,3.5,7,6.9,10.4,10.4c1.1,1.2,1.7,1,2.8,0c8.8-8.9,17.7-17.8,26.5-26.7
			c1.9-1.9,4-3.2,6.9-2.3c3.3,0.9,5.2,4.3,4.3,7.6c-0.3,0.9-0.7,1.7-1.3,2.4c-0.4,0.4-0.8,0.8-1.2,1.2L69,105.5
			c-3.7,3.7-6.9,3.7-10.6,0c-5.1-5.1-10.2-10.1-15.2-15.2c-3.1-3.1-2.8-7.6,0.6-9.8C44.7,79.8,45.8,79.4,47,79.4z"/>
	</g>
</g>
</svg>
