<?xml version="1.0" encoding="utf-8"?>
<!-- Generator: Adobe Illustrator 25.4.1, SVG Export Plug-In . SVG Version: 6.00 Build 0)  -->
<svg version="1.1" id="Layer_1" xmlns="http://www.w3.org/2000/svg" xmlns:xlink="http://www.w3.org/1999/xlink" x="0px" y="0px"
	 viewBox="0 0 141.8 141.8" style="enable-background:new 0 0 141.8 141.8;" xml:space="preserve">
<style type="text/css">
	.st0{fill:#0A3558;}
</style>
<g id="Layer_2_00000165220191135162510570000014474235661501724606_">
	<g id="Layer_1-2">
		<path class="st0" d="M49,0h10.2c1.8,0.3,3.5,0.5,5.3,0.8C96.4,7,115.9,40.3,105.6,71c-9.4,28.5-40,43.9-68.5,34.6
			c-3-1-5.9-2.2-8.7-3.7c-1.2-0.7-2.7-0.9-4.1-0.4c-7.5,2.1-15.1,4.2-22.6,6.3c-1.5,0.4-1.7,0.3-1.3-1.2c0.1-0.3,0.1-0.5,0.2-0.8
			C2.8,98.1,4.8,90.6,6.9,83c0.3-0.9,0.2-1.9-0.3-2.8c-2.1-3.8-3.8-7.8-4.9-12c-0.8-3-1.3-6-1.7-9.1V49c0.1-0.9,0.3-1.8,0.4-2.7
			c3.8-21.4,15.9-35.8,36-43.5C40.5,1.4,44.7,0.5,49,0z M50.2,60.7c0,2,0,3.3,0,4.7c0,0.8,0.4,1.2,1.2,1.2c1.8,0,3.7,0,5.5,0
			c0.8,0,1.2-0.4,1.2-1.2c0-1.2,0-2.5,0-3.7c-0.1-1,0.4-1.9,1.1-2.5c2.5-2.1,5-4.4,7.3-6.8c6-6.8,5.3-17.2-1.5-23.2
			c-4-3.6-9.6-4.9-14.8-3.6c-6.6,1.7-11.5,7.2-12.4,13.9c-0.2,1.7,0,1.9,1.7,1.9c1.4,0,2.8-0.1,4.2,0s1.9-0.3,2.2-1.7
			c1-4.5,5.4-7.4,9.9-6.4c0.1,0,0.2,0,0.3,0.1c3,0.7,5.4,3,6.2,6c0.9,3,0,6.3-2.3,8.4c-2,2.1-4.2,4-6.4,5.9
			C50.8,55.5,49.3,57.8,50.2,60.7L50.2,60.7z M58,79.2c0-1,0-1.9,0-2.9s-0.4-1.2-1.3-1.2c-1.8,0-3.6,0-5.4,0c-0.9,0-1.2,0.4-1.2,1.3
			c0,1.9,0,3.8,0,5.7c0,0.8,0.4,1.2,1.2,1.2c1.8,0,3.7,0,5.5,0c0.8,0,1.2-0.4,1.2-1.2S58,80.2,58,79.2z"/>
		<path class="st0" d="M141.8,92.4c0,11.2-1.8,18.5-5.5,25.3c-0.6,1-0.7,2.2-0.3,3.3c1.8,6.2,3.5,12.5,5.2,18.8
			c0.5,1.7,0.3,1.9-1.4,1.4c-6.2-1.7-12.4-3.4-18.5-5.1c-1.3-0.4-2.7-0.3-3.8,0.4c-21.8,11.6-48.8,3.9-61.3-17.4
			c-1.6-2.7-1.6-2.7,1.5-2.9c18.5-1.2,33.6-9.2,45.2-23.6c8.2-10.1,12.9-22.6,13.3-35.7c0-0.2,0-0.5,0-0.7c0.1-1.1,0.4-1.4,1.5-0.8
			c3.5,1.9,6.8,4.2,9.7,7C136.9,71.6,141.7,82.8,141.8,92.4z"/>
	</g>
</g>
</svg>
