<svg xmlns="http://www.w3.org/2000/svg" viewBox="0 0 145.87 145.88"><g id="Layer_2" data-name="Layer 2"><g id="Layer_1-2" data-name="Layer 1"><path d="M71.79,140.86Q39.3,108.3,6.72,75.84C3.57,72.72,1.09,69.35,0,65V9.8A13.82,13.82,0,0,1,4.6,2.62,11.53,11.53,0,0,1,11.69,0C28.86,0,46,0,63.21.08A14.68,14.68,0,0,1,73.48,4.7C79.81,11,86.1,17.31,92.41,23.61Q117,48.16,141.53,72.72a13.15,13.15,0,0,1,4.33,8.84,12.81,12.81,0,0,1-4.19,10q-15.57,15.53-31.1,31.09c-5.91,5.9-11.85,11.77-17.7,17.73-2.4,2.44-4.92,4.59-8.32,5.46H79.71A17.17,17.17,0,0,1,71.79,140.86ZM48.34,36.44a11.9,11.9,0,1,0-11.81,12A11.78,11.78,0,0,0,48.34,36.44Z"/></g></g></svg>