<?xml version="1.0" encoding="utf-8"?>
<!-- Generator: Adobe Illustrator 25.4.1, SVG Export Plug-In . SVG Version: 6.00 Build 0)  -->
<svg version="1.1" id="Layer_1" xmlns="http://www.w3.org/2000/svg" xmlns:xlink="http://www.w3.org/1999/xlink" x="0px" y="0px"
	 viewBox="0 0 183.7 172.5" style="enable-background:new 0 0 183.7 172.5;" xml:space="preserve">
<style type="text/css">
	.st0{fill:#C1A261;}
</style>
<g id="Layer_2_00000048480293518323472450000014515418522583739815_">
	<g id="Layer_1-2">
		<path class="st0" d="M0,70.1c1.2-2.7,3.1-4.3,6.3-4.1c1.7,0.1,1.7,0.1,6.3,4.9c0.4-1.9,0.8-3.7,1.3-5.4
			c7.9-29.3,26.1-49.5,54.5-60.4c11.2-4.2,23.2-5.9,35.2-4.9c20.8,1.3,40.4,10.3,54.9,25.2c13.9,13.7,22.6,31.7,24.7,51.1
			c4,35.4-14.1,69.5-45.6,86.1c-14.5,7.7-30.9,11.1-47.3,9.6c-24.9-2-44.9-13.1-60.1-33c-0.9-1-1.4-2.2-1.6-3.5
			c-0.4-2.6,1.1-5.2,3.6-6.2c2.5-1,5.4-0.2,7,2c3.8,5.2,8.2,9.8,13.2,13.8c11.3,9.1,25.2,14.3,39.7,15.1
			c20.6,1.2,38.8-4.8,54.3-18.3c13.3-11.3,22-27.1,24.4-44.4c3.7-25.3-3.8-47.1-22-65c-11.4-11.5-26.5-18.6-42.6-20
			c-32.1-3-56.5,9.7-73.4,37c-4,6.8-6.8,14.2-8.2,22c-0.2,0.5-0.1,1,0.2,1.4c0.8-0.8,1.5-1.5,2.3-2.2c2.6-2.5,6.3-2.6,8.7-0.2
			c2.3,2.4,2.2,6.2-0.2,8.6c0,0-0.1,0.1-0.1,0.1c-4.5,4.6-9.1,9.2-13.7,13.7c-3.2,3.2-7.3,2.7-9.7-1C8,85.9,3.8,80,0,73.7V70.1z"/>
		<path class="st0" d="M100.5,61c0,7.7,0,15.4,0,23.1c-0.1,1.3,0.5,2.5,1.5,3.2c9.9,7.4,19.8,15,29.7,22.4c2.2,1.7,3.4,3.7,2.8,6.5
			c-0.6,3.1-3.7,5.2-6.8,4.5c-0.5-0.1-1.1-0.3-1.5-0.5c-0.7-0.4-1.3-0.8-1.9-1.3c-10.8-8.1-21.6-16.2-32.4-24.3
			c-2-1.4-3.2-3.7-3.1-6.1c0-17,0-33.9,0-50.8c-0.2-2.9,1.9-5.5,4.8-6c2.9-0.5,5.7,1.1,6.6,3.9c0.2,0.8,0.3,1.6,0.3,2.5L100.5,61z"
			/>
	</g>
</g>
</svg>
