<svg xmlns="http://www.w3.org/2000/svg" viewBox="0 0 409 321.59"><g id="Layer_2" data-name="Layer 2"><g id="Layer_1-2" data-name="Layer 1"><path d="M409,204.65c-2,10.18-4.34,20.3-9.4,29.5C382.74,264.85,357,281.67,321.83,283c-16.21.63-32.46,0-48.69.21-3.93,0-5.11-1.33-4.94-5.08.25-5.44.23-10.91,0-16.36-.14-3.6,1.05-4.88,4.77-4.84,14.63.18,29.27.16,43.9,0,12.86-.09,25.08-2.69,36.11-9.72,21.84-13.92,33.23-37.37,29-64.09-4.25-26.88-24.22-47-50.3-51.78-8.71-1.59-13.38-6-15.42-14.71C308,81.25,287.11,55.38,254.61,39.2,237.06,30.47,218.29,27,198.55,28.14c-31.49,1.87-57.7,14.57-78.8,37.75-15.93,17.52-25.22,38.25-28.34,61.75-.58,4.37-.69,8.74-.86,13.12-.36,9.22-4.8,14.06-13.9,14.68C56,156.83,40.41,166.06,31.3,185,16.22,216.33,38,254,72.7,256.44c21,1.49,42,.29,63,.59,5.87.09,5.88,0,5.89,6,0,5.45-.06,10.91,0,16.36,0,2.69-1,3.78-3.79,3.77-22.35-.09-44.73.53-67-.26C36.05,281.72,5.07,252.11.67,217c-4.85-38.66,17-73.33,54.1-84.27,7.13-2.11,9.49-4.88,10.55-12.22,5.4-37.17,23.09-67.62,52.7-90.83A137.09,137.09,0,0,1,190.76.73c35.13-3.43,67.07,5.28,95.7,25.6a135,135,0,0,1,52.28,72.4c1.63,5.33,4.17,7.9,9.63,9.89,33.86,12.32,53.95,36.53,60.09,72.15.13.78.36,1.55.54,2.32Z"/><path d="M218.28,200.09v5.81q0,54.66,0,109.31c0,6.28,0,6.28-6.42,6.28-5.18,0-10.39-.24-15.55.08-4.22.26-4.73-1.8-4.72-5.28q.12-55.25,0-110.51c0-1.54.35-3.15-.37-4.72-1.58.07-2.21,1.41-3.09,2.28-7.57,7.47-15.15,14.95-22.6,22.53-2,2-3.47,2.31-5.56.11-4.3-4.54-8.75-8.93-13.25-13.27-1.87-1.81-2.26-3.14-.18-5.21,16.25-16.1,32.34-32.35,48.59-48.45,5.9-5.85,13.61-5.81,19.54.07,16.15,16,32.16,32.15,48.3,48.17,1.95,1.94,2.06,3.25,0,5.19q-6.93,6.6-13.54,13.53c-2,2.07-3.33,1.83-5.22-.09C236.91,218.41,229.44,211,222,203.6,221.07,202.68,220.09,201.8,218.28,200.09Z"/></g></g></svg>