<?xml version="1.0" encoding="utf-8"?>
<!-- Generator: Adobe Illustrator 25.4.1, SVG Export Plug-In . SVG Version: 6.00 Build 0)  -->
<svg version="1.1" id="Layer_1" xmlns="http://www.w3.org/2000/svg" xmlns:xlink="http://www.w3.org/1999/xlink" x="0px" y="0px"
	 viewBox="0 0 149 163.5" style="enable-background:new 0 0 149 163.5;" xml:space="preserve">
<style type="text/css">
	.st0{fill:#0A3558;}
	.st1{fill:#C1A261;}
</style>
<g id="Layer_2_00000054978177364223512600000015643418053972294317_">
	<g id="Layer_1-2">
		<path class="st0" d="M96.8,163.5c-3.9-0.6-7.7-1.5-11.4-2.8c-9.2-3.5-17.1-9.8-22.6-18c-0.7-1.2-2-1.9-3.4-1.8
			c-13.6,0.1-27.1,0.1-40.7,0c-9.6,0-17-6.2-18.6-15.7C0,124.3,0,123.4,0,122.5c0-34.7,0-69.3,0-104C-0.2,8.5,7.8,0.2,17.9,0
			c0.2,0,0.4,0,0.6,0c18,0,36,0,53.9,0c1.6,0,3.2,0.6,4.2,1.8c11.1,11.6,22.1,23.3,33.2,34.9c1.1,1.1,1.8,2.7,1.7,4.3
			c0,9.2,0,18.5-0.1,27.8c0,1.5,0.5,2.1,1.9,2.5c18.9,5.4,30.8,17.8,34.6,37c3,15-1.2,28.6-11.5,40c-7.4,8.3-17.5,13.6-28.5,15
			c-0.4,0.1-0.7,0.2-1.1,0.3L96.8,163.5z M7.2,70.5c0,16.9,0,33.8,0,50.7c-0.1,1.3,0,2.7,0.3,4c1.2,5.2,5.9,8.8,11.2,8.6
			c12.5,0.1,25,0,37.5,0c1.9,0,1.9,0,1.2-1.9c-2.7-7.8-3.3-16.2-1.6-24.3c0.3-1.4,0-1.7-1.4-1.7c-8.5,0-16.9,0-25.4,0
			c-0.6,0-1.3,0-1.9-0.1c-1.9-0.3-3.2-2.1-2.9-4c0.2-1.4,1.2-2.5,2.6-2.8c0.9-0.2,1.8-0.3,2.7-0.3h27.3c1,0,1.9,0,2.3-1.2
			c1.1-2.5,2.4-4.9,4-7.1c0.3-0.5,1.1-1,0.7-1.6s-1.1-0.2-1.7-0.2H28.9c-3.1,0-4.8-1.4-4.8-3.7s1.7-3.5,4.8-3.5
			c13.3,0,26.6,0,39.9,0c1.3,0,2.6-0.4,3.6-1.3c8.5-6.9,19.2-10.6,30.1-10.5c1.5,0,1.9-0.4,1.9-1.9c-0.1-7.4-0.1-14.9,0-22.3
			c0-1.5-0.5-1.9-1.9-1.9c-5.6,0.1-11.3,0.1-16.9,0c-6.4-0.1-11.2-2.8-14.3-8.5c-1.2-2.6-1.8-5.4-1.7-8.2c-0.1-6,0-11.9,0-17.9
			c0-1.1-0.2-1.8-1.6-1.8c-16.8,0-33.7,0.1-50.6,0.1c-1.4,0-2.8,0.3-4,1c-4.5,2.3-6.5,6-6.4,11C7.2,36.3,7.2,53.4,7.2,70.5L7.2,70.5
			z M101.9,156.5c22,0,39.7-17.9,39.7-39.8S123.8,76.9,101.8,77c-22,0-39.7,17.9-39.7,39.8c0,21.9,17.8,39.7,39.7,39.7
			C101.8,156.5,101.9,156.5,101.9,156.5L101.9,156.5z M99.2,36.4c-0.1-0.3-0.1-0.3-0.1-0.4L78.1,13.8c-0.2-0.3-0.5-0.7-0.9-0.5
			s-0.3,0.7-0.3,1.1c0.1,4.8-0.2,9.6,0.2,14.3c0.3,4.2,3.2,7.3,7.4,7.5C89.3,36.5,94.2,36.4,99.2,36.4z"/>
		<path class="st0" d="M44.9,71.4c-5.6,0-11.2,0-16.7,0c-1.5,0.2-3-0.6-3.7-2c-0.8-1.7-0.2-3.7,1.5-4.6c0.3-0.1,0.5-0.2,0.8-0.3
			c0.8-0.2,1.6-0.3,2.4-0.3c10.4,0,20.8,0,31.3,0c0.8,0,1.6,0.1,2.4,0.2c1.8,0.3,3,1.9,2.8,3.7c-0.1,1.8-1.6,3.2-3.3,3.2
			c-4.2,0.1-8.3,0-12.4,0C48.2,71.4,46.5,71.4,44.9,71.4z"/>
		<path class="st1" d="M105.5,103v35.4c0.1,0.7,0,1.5-0.2,2.2c-0.4,1.5-1.9,2.6-3.4,2.5c-1.5,0-2.9-1-3.3-2.5
			c-0.2-0.8-0.3-1.7-0.2-2.5v-34.5c-0.8,0-1.1,0.6-1.4,1c-3.8,4.1-7.7,8.1-11.5,12.2c-0.4,0.4-0.8,0.8-1.3,1.2
			c-1.4,1.2-3.4,1.1-4.7-0.1c-1.3-1.2-1.5-3.2-0.4-4.6c1-1.3,2-2.4,3.2-3.6c5.4-5.8,10.8-11.6,16.2-17.4c2.5-2.6,4.3-2.6,6.8,0
			c6.1,6.6,12.3,13.1,18.4,19.7c0.8,0.7,1.3,1.6,1.6,2.6c0.4,1.9-0.9,3.8-2.8,4.2c-1.3,0.3-2.7-0.2-3.5-1.3c-1.6-1.6-3.1-3.3-4.7-5
			C111.5,109.4,108.6,106.4,105.5,103z"/>
	</g>
</g>
</svg>
