<?xml version="1.0" encoding="utf-8"?>
<!-- Generator: Adobe Illustrator 25.4.1, SVG Export Plug-In . SVG Version: 6.00 Build 0)  -->
<svg version="1.1" id="Layer_1" xmlns="http://www.w3.org/2000/svg" xmlns:xlink="http://www.w3.org/1999/xlink" x="0px" y="0px"
	 viewBox="0 0 191.9 192.2" style="enable-background:new 0 0 191.9 192.2;" xml:space="preserve">
<style type="text/css">
	.st0{fill:#0A3558;}
</style>
<g id="Layer_2_00000123416514988829367360000011040534887198994848_">
	<g id="Layer_1-2">
		<path class="st0" d="M103.8,192.2H88.1c-0.4-0.1-0.7-0.2-1.1-0.2c-14.7-1.3-28.5-5.5-40.9-13.5C13.3,157.2-2.2,126.9,0.2,87.8
			C1.2,74.3,5.2,61.1,12,49.4C32.6,12.9,73-6.5,114.1,2c38.2,7.8,62.9,31.4,74.5,68.6c1.8,5.8,2.5,11.8,3.3,17.8v15.7
			c-0.5,3.5-0.8,7-1.5,10.4c-8.5,37.7-31.2,62.5-68,74.3C116.4,190.7,110.1,191.5,103.8,192.2z M180.3,92.7
			c-0.1-4.2-0.5-8.4-1.4-12.5C171,39.3,134,9.8,92.1,11.9C81,12.4,70,15.1,60,19.9C29.8,34,10.1,65.6,11.6,99.3
			c0.4,11.3,3.1,22.3,7.8,32.6c3,6.4,6.7,12.4,11.2,17.9c0.3,0.3,0.5,0.8,1,0.8c0.5,0,0.6-0.7,0.8-1.2c0.1-0.4,0.2-0.7,0.3-1.1
			c4.3-14.1,13.2-26.4,25.3-34.8c4.1-2.9,8.5-5.3,13.1-7.1c1.2-0.5,1.6-1,0.3-1.9c-0.2-0.2-0.5-0.4-0.7-0.6
			C58.2,93.2,53,79.7,56.4,63.6c4.4-21,23.9-34.3,45.2-31.6c19.3,2.5,34.6,19.4,35,38.8c0.2,13.7-5.1,24.9-15.8,33.4
			c-1.5,1.2-1.5,1.3,0.3,2.1c19.3,8.4,32.1,22.6,38.4,42.7c0.2,0.5,0.1,1.3,0.7,1.4s0.9-0.6,1.2-1
			C174.8,132.9,180.9,113.9,180.3,92.7z M95.3,113.2c-3.2-0.1-6.4,0.2-9.6,0.9c-22.4,4.4-39.8,22.3-43.5,44.8
			c-0.3,1.3,0.2,2.8,1.4,3.5c18.5,14.3,39.3,20.2,62.5,17.6c15-1.7,28.5-7.4,40.7-16.3c2.8-2,3.2-4,2.6-7.1
			C144,131.2,121.9,113.2,95.3,113.2L95.3,113.2z M124.8,72.3c0.1-15.9-12.8-28.9-28.7-29S67.2,56.1,67.1,72
			c-0.1,15.9,12.8,28.9,28.7,29C111.7,101.1,124.7,88.2,124.8,72.3L124.8,72.3z"/>
	</g>
</g>
</svg>
