<?xml version="1.0" encoding="utf-8"?>
<!-- Generator: Adobe Illustrator 25.4.1, SVG Export Plug-In . SVG Version: 6.00 Build 0)  -->
<svg version="1.1" id="Layer_1" xmlns="http://www.w3.org/2000/svg" xmlns:xlink="http://www.w3.org/1999/xlink" x="0px" y="0px"
	 viewBox="0 0 375.1 375.1" style="enable-background:new 0 0 375.1 375.1;" xml:space="preserve">
<style type="text/css">
	.st0{fill:#C1A261;}
</style>
<g id="Layer_2_00000025410581337775889030000018137186222998193594_">
	<g id="Layer_1-2">
		<path class="st0" d="M375.1,207.1v62.2c-2.1,7.5-6.1,13.6-13.1,17.2c-2.7,1.4-3.5,3.1-3.5,6c0.1,15.5,0.1,31,0,46.5
			c0.2,5.6-1,11.2-3.5,16.3c-6.7,13-17.4,19.6-32.1,19.6h-191c-32.1,0-64.2,0-96.2,0c-5.7,0-11.2-0.9-16.3-3.5
			C6.5,364.8,0,354.1,0,339.6v-202c0-1.3,0-2.7,0.1-4c0.9-15.9,14.7-30,30.6-31.4c9.6-0.9,19.3-0.3,28.9-0.5c2.9,0,5.8-0.8,8.3-2.3
			c51.5-30.1,103.1-60.1,154.6-90.1c6.4-3.7,12.7-7.7,20.1-9.4h11.7C266,2.6,274.1,9.5,280,19.9c13.8,24.4,27.9,48.6,41.6,73
			c3.1,5.4,6.2,9.2,13,11.2c15,4.2,23.7,17.2,23.8,33.1s0,31.7,0,47.5c0,1.8-0.3,3.7,1.8,4.8C368,193.1,372.5,199.3,375.1,207.1z
			 M178.9,357.1c47.7,0,95.4,0,143.1,0c12.2,0,18.5-6.3,18.5-18.5c0-14.3,0-28.5,0-42.8c0-5.7,0-5.8-5.6-5.8c-14.5,0-29,0-43.5,0
			c-3.9,0-7.8-0.3-11.6-1.1c-26.6-5.7-43.7-29.4-40.9-56.7c2.6-25.4,25-45.1,51.4-45.2c15.4,0,30.7,0,46.1,0c2.9,0,4.2-0.8,4.2-3.9
			c-0.1-15.9,0-31.7-0.1-47.6c-0.1-7.5-5.4-13.9-12.8-15.4c-2.3-0.5-4.6-0.7-6.9-0.7H37.5c-1,0-2,0-2.9,0
			c-8.2,0.6-14.6,5.4-16.2,12.5c-0.5,2.6-0.6,5.3-0.5,8c0,65.6,0,131.2,0,196.9c0,1.7,0,3.4,0.1,5.1c0.3,5.2,3.1,10,7.6,12.6
			c3.6,2.3,7.6,2.4,11.6,2.4H178.9z M317.9,205v0.1c-10.1,0-20.3-0.3-30.4,0.1c-20.2,0.7-35.4,21.5-30.2,41.1
			c4.1,15.6,16.8,25.6,32.8,25.7c19.1,0.1,38.3,0.1,57.5,0c6.9,0,9.8-2.9,9.8-9.8c0.1-15.9,0.1-31.7,0-47.6c0-7-2.7-9.6-9.8-9.7
			C337.7,205,327.8,205,317.9,205z M101.3,101.4c1.2,0.1,2.2,0.2,3.3,0.2c7.7,0,15.4,0,23.1,0c2.6,0,5.1-0.7,7.3-2
			c12.7-7.5,25.5-14.9,38.2-22.3l85.7-49.9c3.5-2,3.5-2.9,0.6-5.6c-5.5-5.2-13.2-5.6-21-1.1C193.7,46.8,148.9,72.9,104.1,99
			C103.1,99.6,101.8,99.8,101.3,101.4z M168.5,101.6c5.8,0,11.3-0.4,16.8,0.1c9.3,0.9,17.1-1.8,25.1-6.6c21.4-13,43.3-25.5,65-38
			c3.1-1.8,3.6-3.4,1.6-6.2c-1.2-1.8-2.3-3.7-3.3-5.7c-2.5-4.3-2.5-4.3-6.9-1.8C235,62,203.1,80.6,171.2,99.2
			C170.3,99.7,169.2,100,168.5,101.6L168.5,101.6z M236,100.8l0.3,0.8h66.8c3,0,2-1.5,1.2-3c-4.8-8.4-9.6-16.7-14.3-25.1
			c-1.5-2.7-2.8-2.6-5.2-1.2c-6.7,4-13.5,7.9-20.2,11.8L236,100.8z"/>
		<path class="st0" d="M289.8,255.8c-9.5,0-17.2-7.6-17.3-17.1c0.1-9.6,7.8-17.4,17.4-17.6c9.6,0.1,17.4,7.9,17.4,17.5
			c0.1,9.5-7.5,17.2-17,17.3C290.1,255.8,289.9,255.8,289.8,255.8z"/>
	</g>
</g>
</svg>
